<svg width="198" height="25" viewBox="0 0 198 25" fill="none" xmlns="http://www.w3.org/2000/svg">
<path d="M19.6126 12.8398C19.6126 16.0485 19.5846 19.2572 19.6126 22.469C19.6281 23.7301 19.1187 24.2986 17.8607 24.224C17.3434 24.1945 16.8249 24.1945 16.3076 24.224C15.1645 24.2768 14.7234 23.6866 14.7265 22.615C14.7265 20.596 14.711 18.577 14.7265 16.5579C14.7265 15.7659 14.5992 15.4677 13.6735 15.7006C11.1523 16.3436 8.51004 16.3436 5.98881 15.7006C4.92338 15.4304 4.87679 15.8559 4.88921 16.6573C4.91096 18.6236 4.88921 20.5898 4.88921 22.5591C4.88921 23.7053 4.42639 24.3172 3.20876 24.2147C2.74358 24.1774 2.27616 24.1774 1.81097 24.2147C0.444249 24.3327 -0.00614914 23.668 6.32477e-05 22.351C0.0311252 15.9315 0.0311252 9.51205 6.32477e-05 3.09258C0.04355 1.78488 0.574709 1.19781 1.90727 1.28478C2.32095 1.31287 2.73606 1.31287 3.14974 1.28478C4.50094 1.1947 5.01346 1.87806 4.99172 3.1485C4.96376 5.06191 5.02899 6.97843 4.96687 8.89185C4.93581 9.7709 5.22779 10.1778 6.08199 10.4108C8.53607 11.0946 11.1297 11.1 13.5866 10.4263C14.5029 10.184 14.829 9.7212 14.7824 8.78002C14.7172 6.86661 14.7824 4.95009 14.7545 3.03667C14.7296 1.7942 15.2515 1.19781 16.5126 1.27546C16.9781 1.30186 17.4448 1.30186 17.9104 1.27546C19.1622 1.21334 19.653 1.81904 19.6374 3.06152C19.6126 6.31681 19.6126 9.58453 19.6126 12.8398Z" fill="#FEFEFE"/>
<path d="M128.298 13.6969C131.168 12.4545 133.082 10.5752 134.576 8.20828C135.309 7.04035 138.344 6.37563 139.508 7.13975C140.214 7.60258 140.13 8.22071 139.819 8.90718C138.816 11.0715 137.426 13.0338 135.716 14.6971C135.095 15.3184 135.095 15.6942 135.592 16.3558C137.232 18.4867 138.816 20.661 140.419 22.8198C140.729 23.2267 141.145 23.6119 140.822 24.1959C140.534 24.7115 140.009 24.5065 139.58 24.581C137.02 24.9817 135.048 24.2331 133.787 21.8321C133.361 21.0182 132.579 20.397 132.131 19.5925C131.404 18.2817 130.56 18.1046 129.243 18.7756C128.584 19.111 128.286 19.3968 128.311 20.1174C128.36 21.1487 128.332 22.1862 128.311 23.2236C128.295 24.0871 127.87 24.5065 126.975 24.5872C123.661 24.8979 123.446 24.7084 123.446 21.3568C123.446 15.045 123.446 8.72909 123.446 2.40902C123.446 0.355825 123.567 0.27817 126.214 0.293701C128.14 0.293701 128.289 0.455223 128.289 2.46804C128.298 6.14577 128.298 9.81419 128.298 13.6969Z" fill="#FEFEFE"/>
<path d="M183.682 6.75475C184.997 6.72833 186.308 6.91827 187.561 7.31697C188.586 7.65555 188.863 9.14341 188.251 10.8083C187.832 11.9545 187.08 11.2898 186.465 11.119C184.856 10.6313 183.253 10.3393 181.591 10.8456C180.889 11.0568 180.349 11.4668 180.311 12.2217C180.268 13.0603 180.933 13.3865 181.591 13.5449C183.25 13.9394 184.933 14.2189 186.583 14.6321C188.897 15.216 190.065 16.4958 190.348 18.6297C190.484 19.6639 190.292 20.7147 189.798 21.6334C189.304 22.5522 188.533 23.2922 187.595 23.7487C184.179 25.4012 180.678 25.1155 177.184 23.9475C176.931 23.881 176.715 23.7174 176.582 23.4923C176.449 23.2671 176.411 22.9987 176.475 22.7454C176.556 22.1242 176.68 21.503 176.718 20.9004C176.789 19.7355 177.376 19.6579 178.289 20.0462C180.128 20.8103 182.017 21.2886 184.03 20.9035C184.878 20.7419 185.735 20.4872 185.744 19.4404C185.753 18.3937 184.853 18.2601 184.11 18.0893C182.604 17.7414 181.057 17.5426 179.563 17.1574C176.997 16.4802 175.854 15.1756 175.708 12.9237C175.54 10.4884 176.64 8.59983 178.898 7.5841C180.403 6.9273 182.044 6.64281 183.682 6.75475Z" fill="#FEFEFE"/>
<path d="M113.55 6.73919C116.035 6.73919 118.24 7.4474 119.905 9.39498C120.965 10.6375 120.8 11.2401 119.464 12.1222C118.203 12.9547 117.212 13.2063 116.016 11.8582C115.038 10.7555 113.563 10.6468 112.121 11.122C110.313 11.7215 109.257 13.2094 109.108 15.3899C108.956 17.6481 109.916 19.4746 111.671 20.276C113.426 21.0774 115.004 20.7481 116.591 19.2385C117.451 18.4185 118.728 18.6421 120.089 19.9001C121.058 20.7978 120.471 21.6147 119.806 22.3043C117.274 24.9291 114.143 25.3546 110.798 24.4787C107.403 23.6058 105.207 21.3538 104.461 17.937C103.107 11.8458 107.31 6.72676 113.55 6.73919Z" fill="#FEFEFE"/>
<path d="M164.013 15.042C164.013 14.0605 163.992 13.0758 164.013 12.0942C164.054 10.8518 164.249 9.76769 162.324 9.65276C160.966 9.57511 161.553 8.09967 161.482 7.19266C161.417 6.40369 161.867 5.81972 162.671 5.9067C164.001 6.04647 164.116 5.33205 164.013 4.33185C163.998 4.02143 163.998 3.71042 164.013 3.4C164.013 0.554723 165.023 -0.196976 167.822 0.511236C168.573 0.70382 168.806 1.20392 168.822 1.87486C168.847 2.85952 168.871 3.84418 168.822 4.82574C168.788 5.63335 169.098 5.96571 169.906 5.87563C170.263 5.83525 170.633 5.90048 170.99 5.87563C172.45 5.72654 173.04 6.34467 173.04 7.83254C173.04 9.3204 172.419 9.86709 170.99 9.85777C168.816 9.85777 168.816 9.89505 168.816 11.9948C168.816 13.9611 168.797 15.9304 168.816 17.8966C168.84 19.6299 169.216 19.9902 170.912 20.0461C172.885 20.1113 172.959 20.3039 173.012 22.7329C173.049 24.3264 172.276 24.7178 170.906 24.5967C170.493 24.5594 170.077 24.5967 169.663 24.5967C166.172 24.4942 164.125 22.4689 164.004 18.9496C163.957 17.6574 164.004 16.3621 164.004 15.0669L164.013 15.042Z" fill="#FEFEFE"/>
<path d="M83.2679 15.0544C83.2679 14.0728 83.2679 13.0882 83.2679 12.1066C83.2897 10.8952 83.5413 9.75833 81.5937 9.65893C80.2736 9.5937 80.7084 8.14 80.6836 7.21746C80.665 6.3819 81.0812 5.77619 82.0037 5.89112C83.2462 6.04332 83.3518 5.35685 83.2742 4.41257C83.2307 3.90005 83.2742 3.37821 83.2742 2.85947C83.2742 0.523615 83.3425 0.458385 85.7405 0.464597C87.9148 0.464597 88.0329 0.585738 88.0391 2.72901C88.0391 3.03963 88.0391 3.35025 88.0391 3.66087C88.0391 5.83521 88.0391 5.91907 90.2755 5.83521C91.7882 5.78551 92.2604 6.40364 92.279 7.84491C92.3008 9.36695 91.6329 9.84841 90.2196 9.83598C88.0453 9.82045 88.0453 9.86705 88.0453 12.1097C88.0453 14.0231 88.0453 15.9397 88.0453 17.8531C88.0453 19.2757 88.5609 20.1268 90.1513 20.0274C90.9123 19.9808 91.8783 19.8721 92.1082 20.8381C92.366 21.9222 92.5027 23.087 91.9218 24.1524C91.7997 24.316 91.6273 24.4349 91.431 24.491C90.538 24.8195 89.5801 24.9329 88.635 24.8221C87.69 24.7114 86.7843 24.3795 85.9914 23.8534C85.1985 23.3274 84.5407 22.6219 84.0713 21.7942C83.6019 20.9665 83.3342 20.0398 83.2897 19.0893C83.2369 17.7475 83.2897 16.3994 83.2897 15.0513L83.2679 15.0544Z" fill="#FEFEFE"/>
<path d="M48.5001 12.4141C48.5001 15.6694 48.5001 18.9247 48.5001 22.18C48.5001 24.5345 48.4535 24.578 46.0151 24.578C43.7134 24.578 43.6172 24.4786 43.6172 22.093C43.6172 18.3221 43.6172 14.5502 43.6172 10.7772C43.6172 7.9816 43.6172 5.18603 43.6172 2.40599C43.6172 0.564014 43.8781 0.321731 45.6362 0.3062C48.5001 0.265819 48.5001 0.265819 48.5001 3.11109V12.4141Z" fill="#FEFEFE"/>
<path d="M57.8188 12.4391C57.8188 15.8559 57.7784 19.2727 57.8405 22.6895C57.8685 24.0811 57.3963 24.7396 55.9613 24.5998C55.4972 24.5595 55.0306 24.5595 54.5666 24.5998C53.4142 24.6868 52.9576 24.0811 52.9576 23.025C52.9576 15.9967 52.9576 8.96739 52.9576 1.93704C52.9576 0.800175 53.4949 0.209998 54.6939 0.315609C55.1581 0.352944 55.6245 0.352944 56.0886 0.315609C57.3653 0.222423 57.8436 0.828131 57.8312 2.07061C57.8001 5.51227 57.8188 8.96325 57.8188 12.4391Z" fill="#FEFEFE"/>
<path d="M96.1182 16.4709C96.1182 14.5046 96.1492 12.5415 96.1182 10.5691C96.0933 9.2707 96.6027 8.61839 97.9539 8.72711C98.4664 8.76749 98.9883 8.74264 99.507 8.72711C100.458 8.70847 100.986 9.1713 100.989 10.1156C101.003 14.5077 101.003 18.8999 100.989 23.2921C100.989 24.0748 100.557 24.5345 99.7307 24.5563H99.1094C96.1306 24.5998 96.1306 24.5998 96.1306 21.565L96.1182 16.4709Z" fill="#FDFDFE"/>
<path d="M197.66 21.7359C197.66 23.3511 196.56 24.5315 195.035 24.5625C194.673 24.5622 194.315 24.4898 193.982 24.3496C193.649 24.2093 193.347 24.0041 193.094 23.7459C192.841 23.4876 192.642 23.1815 192.508 22.8455C192.375 22.5094 192.31 22.1502 192.317 21.7887C192.317 20.2698 193.559 18.962 194.991 18.9403C196.513 18.903 197.653 20.1207 197.66 21.7359Z" fill="#FDFDFE"/>
<path d="M101.228 3.30991C101.274 4.82884 100.044 6.18004 98.5938 6.20178C97.8887 6.19716 97.2131 5.91839 96.7098 5.42446C96.2066 4.93053 95.9154 4.26019 95.8976 3.5553C95.8138 1.95561 96.9134 0.66033 98.4136 0.5951C99.1445 0.589923 99.8483 0.87118 100.374 1.37862C100.9 1.88606 101.207 2.57933 101.228 3.30991Z" fill="#FDFDFE"/>
<path fill-rule="evenodd" clip-rule="evenodd" d="M32.1774 17.226C32.7293 17.2211 33.281 17.2163 33.8328 17.2163C34.3422 17.2163 34.8516 17.2139 35.361 17.2116C36.5072 17.2063 37.6534 17.201 38.7996 17.2225C40.0017 17.2474 40.4956 16.6789 40.4334 15.5172C40.244 12.0258 38.9518 9.17747 35.6499 7.59952C32.4226 6.05574 28.2478 6.65523 25.7629 8.92276C22.4082 11.9948 21.8615 17.5797 24.5049 21.2295C27.1482 24.8793 33.1898 26.0379 37.2713 23.6772C39.1288 22.6024 39.2065 21.9284 37.8056 20.3349C37.0446 19.4621 36.3954 19.459 35.4014 20.0243C32.7177 21.5525 29.3971 20.7605 28.1547 18.4712C27.6887 17.6108 27.6887 17.1666 28.8629 17.2163C29.9688 17.2453 31.0733 17.2356 32.1774 17.226ZM30.718 13.7489C31.0618 13.751 31.405 13.753 31.7483 13.753C32.0929 13.753 32.4375 13.751 32.7812 13.7489C33.4663 13.7448 34.1481 13.7406 34.8204 13.753C35.5534 13.7717 35.7522 13.5356 35.4416 12.8398C34.8701 11.5228 33.3077 10.5661 31.6862 10.5661C30.1269 10.5847 28.5862 11.5508 28.0644 12.7932C27.8035 13.4083 27.8407 13.7717 28.6421 13.753C29.3384 13.7406 30.0291 13.7448 30.718 13.7489Z" fill="#FEFEFE"/>
<path fill-rule="evenodd" clip-rule="evenodd" d="M151.576 17.2282C152.11 17.2223 152.645 17.2165 153.179 17.2165C153.625 17.2165 154.07 17.2142 154.517 17.2119C155.723 17.2058 156.93 17.1997 158.136 17.2382C159.354 17.2662 159.805 16.6822 159.761 15.5298C159.637 12.0074 158.304 9.11241 154.999 7.62765C151.536 6.07145 148.103 6.38207 145.153 8.954C141.63 12.0229 141.17 17.7352 144.037 21.4813C146.743 25.0192 152.99 26.0474 156.869 23.5624C158.46 22.5374 158.491 22.0093 157.289 20.5153C156.552 19.5927 155.912 19.3815 154.804 20.0214C152.191 21.5248 148.905 20.8476 147.616 18.6888C147.085 17.8004 146.936 17.1606 148.371 17.2165C149.437 17.2517 150.506 17.2399 151.576 17.2282ZM148.066 13.7529H151.005C151.393 13.7529 151.783 13.7512 152.174 13.7496C152.861 13.7467 153.552 13.7438 154.247 13.7498C155.027 13.7498 155.114 13.464 154.779 12.8179C154.459 12.137 153.95 11.5632 153.312 11.1657C152.673 10.7683 151.933 10.5643 151.182 10.5783C149.545 10.5411 148.321 11.2897 147.498 12.6999C147.116 13.3522 147.175 13.7529 148.066 13.7529Z" fill="#FEFEFE"/>
<path fill-rule="evenodd" clip-rule="evenodd" d="M79.4069 15.7442C79.3727 10.4451 75.5925 6.74249 70.2436 6.76423C64.8699 6.78908 61.1021 10.5165 61.1083 15.7846C61.1052 21.1304 64.9352 24.8796 70.3648 24.8578C75.6795 24.8361 79.4411 21.0434 79.4069 15.7442ZM70.2405 20.7017C72.6975 20.7358 74.5426 18.6205 74.5426 15.8249C74.5332 12.9331 72.7472 10.9234 70.2809 10.9078C67.8145 10.8923 65.9508 13.0014 65.9508 15.7783C65.9632 18.6081 67.7835 20.6675 70.2405 20.7017Z" fill="#FEFEFE"/>
</svg>
