<svg width="179" height="23" viewBox="0 0 179 23" fill="none" xmlns="http://www.w3.org/2000/svg">
<path d="M17.7283 11.8519C17.7283 14.7523 17.7031 17.6528 17.7283 20.556C17.7424 21.6959 17.2819 22.2098 16.1448 22.1424C15.6772 22.1157 15.2084 22.1157 14.7409 22.1424C13.7076 22.1901 13.3089 21.6566 13.3117 20.688C13.3117 18.8629 13.2977 17.0378 13.3117 15.2128C13.3117 14.4968 13.1966 14.2273 12.3599 14.4378C10.0809 15.019 7.69245 15.019 5.41344 14.4378C4.45038 14.1936 4.40826 14.5782 4.41949 15.3026C4.43915 17.08 4.41949 18.8573 4.41949 20.6374C4.41949 21.6735 4.00113 22.2266 2.90049 22.134C2.47999 22.1003 2.05748 22.1003 1.63699 22.134C0.401569 22.2407 -0.00555837 21.6398 5.71713e-05 20.4493C0.0281349 14.6466 0.0281349 8.84383 5.71713e-05 3.0411C0.039366 1.85903 0.519495 1.32836 1.72403 1.40697C2.09797 1.43237 2.4732 1.43237 2.84714 1.40697C4.06852 1.32555 4.5318 1.94326 4.51215 3.09164C4.48688 4.82123 4.54584 6.55362 4.48969 8.28321C4.46161 9.07781 4.72554 9.44563 5.49768 9.65621C7.71598 10.2743 10.0604 10.2792 12.2813 9.67025C13.1095 9.45124 13.4044 9.03288 13.3622 8.18213C13.3033 6.45254 13.3622 4.72015 13.337 2.99056C13.3145 1.86745 13.7862 1.32836 14.9262 1.39855C15.347 1.42242 15.7688 1.42242 16.1897 1.39855C17.3212 1.34239 17.7648 1.88991 17.7508 3.01302C17.7283 5.95557 17.7283 8.90934 17.7283 11.8519Z" fill="#3D46C7"/>
<path d="M115.972 12.6267C118.567 11.5035 120.296 9.80484 121.647 7.66532C122.309 6.60959 125.053 6.00873 126.105 6.69944C126.743 7.1178 126.667 7.67655 126.386 8.29707C125.48 10.2534 124.223 12.0273 122.677 13.5308C122.116 14.0923 122.116 14.432 122.565 15.0301C124.047 16.9562 125.479 18.9217 126.928 20.8731C127.209 21.2409 127.585 21.5891 127.293 22.1169C127.032 22.583 126.558 22.3977 126.17 22.4651C123.856 22.8273 122.074 22.1506 120.934 19.9802C120.549 19.2446 119.841 18.683 119.437 17.9558C118.78 16.7709 118.016 16.6109 116.826 17.2174C116.231 17.5206 115.961 17.7789 115.983 18.4303C116.028 19.3625 116.003 20.3003 115.983 21.2381C115.969 22.0187 115.585 22.3977 114.776 22.4707C111.78 22.7515 111.586 22.5802 111.586 19.5506C111.586 13.8452 111.586 8.13609 111.586 2.4232C111.586 0.567266 111.696 0.497072 114.088 0.511111C115.829 0.511111 115.964 0.657115 115.964 2.47655C115.972 5.80096 115.972 9.11694 115.972 12.6267Z" fill="#3D46C7"/>
<path d="M166.035 6.35143C167.224 6.32754 168.409 6.49923 169.542 6.85963C170.468 7.16568 170.718 8.5106 170.165 10.0156C169.786 11.0516 169.107 10.4508 168.551 10.2963C167.096 9.85553 165.647 9.5916 164.145 10.0493C163.511 10.2402 163.022 10.6108 162.988 11.2931C162.949 12.0512 163.55 12.346 164.145 12.4892C165.645 12.8458 167.166 13.0985 168.657 13.4719C170.749 13.9998 171.805 15.1566 172.06 17.0855C172.184 18.0203 172.01 18.9702 171.563 19.8007C171.117 20.6312 170.42 21.3001 169.573 21.7128C166.484 23.2065 163.32 22.9482 160.161 21.8925C159.933 21.8323 159.737 21.6844 159.617 21.4809C159.497 21.2774 159.463 21.0348 159.521 20.8058C159.594 20.2443 159.706 19.6827 159.74 19.138C159.804 18.0851 160.335 18.0149 161.161 18.3659C162.823 19.0566 164.53 19.489 166.349 19.1408C167.116 18.9948 167.891 18.7646 167.899 17.8184C167.908 16.8722 167.093 16.7514 166.422 16.597C165.061 16.2825 163.662 16.1028 162.312 15.7547C159.992 15.1426 158.959 13.9633 158.827 11.9277C158.676 9.72637 159.67 8.01924 161.711 7.1011C163.071 6.5074 164.554 6.25025 166.035 6.35143Z" fill="#3D46C7"/>
<path d="M102.641 6.33736C104.887 6.33736 106.881 6.97753 108.386 8.73801C109.343 9.86112 109.194 10.4058 107.987 11.2032C106.847 11.9557 105.951 12.1831 104.87 10.9646C103.986 9.96781 102.652 9.86954 101.349 10.2991C99.7153 10.841 98.7607 12.186 98.6259 14.157C98.4883 16.1983 99.3559 17.8492 100.942 18.5736C102.529 19.298 103.955 19.0004 105.39 17.6358C106.168 16.8946 107.322 17.0967 108.551 18.2339C109.427 19.0453 108.897 19.7838 108.296 20.4071C106.008 22.7797 103.177 23.1643 100.153 22.3726C97.0844 21.5836 95.0993 19.5479 94.4255 16.4594C93.2013 10.9533 97.0002 6.32613 102.641 6.33736Z" fill="#3D46C7"/>
<path d="M148.256 13.8425C148.256 12.9553 148.236 12.0652 148.256 11.1779C148.293 10.0548 148.469 9.07491 146.729 8.97102C145.502 8.90083 146.032 7.56714 145.968 6.74727C145.909 6.03409 146.316 5.50623 147.043 5.58485C148.245 5.7112 148.349 5.06541 148.256 4.16131C148.242 3.88071 148.242 3.59957 148.256 3.31898C148.256 0.747056 149.169 0.0675746 151.698 0.707747C152.378 0.881829 152.588 1.33388 152.603 1.94036C152.625 2.83042 152.647 3.72049 152.603 4.60774C152.572 5.33776 152.852 5.6382 153.582 5.55677C153.905 5.52027 154.239 5.57923 154.562 5.55677C155.882 5.422 156.415 5.98074 156.415 7.32567C156.415 8.67059 155.854 9.16476 154.562 9.15634C152.597 9.15634 152.597 9.19003 152.597 11.0881C152.597 12.8654 152.58 14.6455 152.597 16.4229C152.619 17.9896 152.959 18.3153 154.492 18.3658C156.275 18.4248 156.342 18.5989 156.39 20.7946C156.424 22.2349 155.725 22.5887 154.487 22.4792C154.113 22.4455 153.737 22.4792 153.363 22.4792C150.207 22.3866 148.357 20.5559 148.248 17.3747C148.206 16.2067 148.248 15.0358 148.248 13.865L148.256 13.8425Z" fill="#3D46C7"/>
<path d="M75.2682 13.8537C75.2682 12.9664 75.2682 12.0764 75.2682 11.1891C75.2878 10.0941 75.5152 9.06645 73.7548 8.9766C72.5615 8.91763 72.9545 7.6036 72.9321 6.76969C72.9152 6.0144 73.2915 5.46688 74.1254 5.57077C75.2485 5.70835 75.344 5.08783 75.2738 4.23427C75.2345 3.77099 75.2738 3.29928 75.2738 2.83038C75.2738 0.718936 75.3355 0.659973 77.5032 0.665588C79.4686 0.665588 79.5753 0.775092 79.5809 2.71246C79.5809 2.99323 79.5809 3.27401 79.5809 3.55479C79.5809 5.52023 79.5809 5.59604 81.6025 5.52023C82.9699 5.4753 83.3967 6.03405 83.4135 7.33686C83.4332 8.71267 82.8295 9.14787 81.5519 9.13664C79.5865 9.1226 79.5865 9.16472 79.5865 11.1919C79.5865 12.9215 79.5865 14.6539 79.5865 16.3835C79.5865 17.6695 80.0526 18.4388 81.4902 18.3489C82.1781 18.3068 83.0513 18.2086 83.2591 19.0818C83.4921 20.0617 83.6157 21.1146 83.0906 22.0777C82.9802 22.2255 82.8244 22.333 82.647 22.3837C81.8397 22.6806 80.9739 22.7832 80.1196 22.683C79.2653 22.5829 78.4467 22.2829 77.73 21.8074C77.0133 21.3319 76.4186 20.6942 75.9944 19.946C75.5701 19.1978 75.328 18.3602 75.2878 17.501C75.2401 16.288 75.2878 15.0695 75.2878 13.8509L75.2682 13.8537Z" fill="#3D46C7"/>
<path d="M43.8405 11.4671C43.8405 14.4097 43.8405 17.3522 43.8405 20.2947C43.8405 22.423 43.7984 22.4623 41.5943 22.4623C39.5138 22.4623 39.4267 22.3725 39.4267 20.2161C39.4267 16.8075 39.4267 13.3979 39.4267 9.98741C39.4267 7.46042 39.4267 4.93342 39.4267 2.42046C39.4267 0.755454 39.6626 0.536448 41.2518 0.522409C43.8405 0.485908 43.8405 0.485908 43.8405 3.05783V11.4671Z" fill="#3D46C7"/>
<path d="M52.264 11.4897C52.264 14.5782 52.2275 17.6668 52.2836 20.7553C52.3089 22.0132 51.8821 22.6084 50.5849 22.4821C50.1655 22.4456 49.7437 22.4456 49.3242 22.4821C48.2825 22.5607 47.8698 22.0132 47.8698 21.0585C47.8698 14.7055 47.8698 8.3515 47.8698 1.99657C47.8698 0.968927 48.3555 0.43545 49.4393 0.530914C49.8589 0.564662 50.2805 0.564662 50.7 0.530914C51.854 0.446681 52.2864 0.994197 52.2752 2.11731C52.2471 5.22832 52.264 8.34775 52.264 11.4897Z" fill="#3D46C7"/>
<path d="M86.8838 15.1341C86.8838 13.3568 86.9119 11.5822 86.8838 9.79931C86.8613 8.62566 87.3218 8.03603 88.5432 8.1343C89.0065 8.1708 89.4782 8.14834 89.9471 8.1343C90.8063 8.11745 91.2836 8.53581 91.2864 9.38937C91.2995 13.3596 91.2995 17.3298 91.2864 21.2999C91.2864 22.0075 90.8961 22.4231 90.1492 22.4427H89.5877C86.895 22.482 86.895 22.482 86.895 19.7388L86.8838 15.1341Z" fill="#3D46C7"/>
<path d="M178.67 19.8933C178.67 21.3533 177.676 22.4203 176.297 22.4484C175.971 22.448 175.647 22.3826 175.346 22.2558C175.045 22.1291 174.772 21.9436 174.543 21.7102C174.314 21.4767 174.134 21.2 174.014 20.8963C173.893 20.5925 173.834 20.2678 173.841 19.941C173.841 18.568 174.964 17.3859 176.258 17.3663C177.634 17.3326 178.664 18.4332 178.67 19.8933Z" fill="#3D46C7"/>
<path d="M91.5026 3.23755C91.5447 4.61055 90.4328 5.83193 89.1216 5.85158C88.4842 5.84741 87.8735 5.59542 87.4187 5.14894C86.9638 4.70247 86.7005 4.09653 86.6845 3.45936C86.6087 2.01336 87.6026 0.842516 88.9588 0.783553C89.6194 0.778874 90.2556 1.03311 90.7311 1.4918C91.2066 1.95049 91.4835 2.57715 91.5026 3.23755Z" fill="#3D46C7"/>
<path fill-rule="evenodd" clip-rule="evenodd" d="M29.086 15.8166C29.5849 15.8123 30.0836 15.8079 30.5824 15.8079C31.0428 15.8079 31.5033 15.8058 31.9638 15.8036C32.9999 15.7989 34.0359 15.7941 35.072 15.8135C36.1586 15.836 36.605 15.3222 36.5489 14.272C36.3776 11.1161 35.2096 8.54139 32.2249 7.11504C29.3076 5.71957 25.534 6.26147 23.2878 8.31115C20.2554 11.088 19.7612 16.1364 22.1506 19.4355C24.54 22.7347 30.0012 23.782 33.6906 21.6481C35.3696 20.6766 35.4398 20.0673 34.1735 18.6269C33.4856 17.8379 32.8988 17.8351 32.0003 18.3461C29.5744 19.7276 26.5729 19.0116 25.4498 16.9422C25.0286 16.1645 25.0286 15.763 26.0899 15.8079C27.0896 15.8341 28.088 15.8254 29.086 15.8166ZM27.7668 12.6736C28.0776 12.6755 28.3879 12.6774 28.6982 12.6774C29.0096 12.6774 29.3211 12.6755 29.6318 12.6736C30.2511 12.6699 30.8674 12.6662 31.4751 12.6774C32.1377 12.6942 32.3174 12.4808 32.0366 11.8519C31.52 10.6614 30.1077 9.79661 28.642 9.79661C27.2325 9.81345 25.8399 10.6867 25.3682 11.8098C25.1323 12.3657 25.166 12.6942 25.8904 12.6774C26.5198 12.6661 27.1441 12.6699 27.7668 12.6736Z" fill="#3D46C7"/>
<path fill-rule="evenodd" clip-rule="evenodd" d="M137.013 15.8187C137.496 15.8134 137.98 15.8081 138.463 15.8081C138.865 15.8081 139.268 15.806 139.672 15.804C140.762 15.7984 141.854 15.7929 142.944 15.8277C144.045 15.853 144.452 15.3251 144.412 14.2834C144.3 11.0994 143.095 8.48258 140.108 7.14047C136.977 5.73378 133.875 6.01455 131.207 8.33939C128.023 11.1135 127.608 16.277 130.199 19.6631C132.645 22.8612 138.291 23.7906 141.798 21.5443C143.236 20.6178 143.264 20.1405 142.177 18.7899C141.512 17.956 140.934 17.7651 139.931 18.3435C137.57 19.7024 134.599 19.0904 133.434 17.139C132.954 16.3359 132.819 15.7575 134.116 15.8081C135.08 15.8399 136.047 15.8293 137.013 15.8187ZM133.841 12.6772H136.497C136.848 12.6772 137.201 12.6757 137.554 12.6743C138.175 12.6717 138.8 12.669 139.428 12.6744C140.133 12.6744 140.212 12.4161 139.909 11.8321C139.62 11.2166 139.16 10.6979 138.582 10.3386C138.005 9.97938 137.337 9.79496 136.657 9.80768C135.177 9.77398 134.071 10.4507 133.327 11.7254C132.982 12.315 133.035 12.6772 133.841 12.6772Z" fill="#3D46C7"/>
<path fill-rule="evenodd" clip-rule="evenodd" d="M71.7781 14.4773C71.7472 9.68721 68.3301 6.34034 63.4951 6.36C58.6377 6.38246 55.2319 9.75179 55.2375 14.5138C55.2347 19.3459 58.6966 22.7349 63.6046 22.7153C68.4087 22.6956 71.8089 19.2673 71.7781 14.4773ZM63.4923 18.9584C65.7132 18.9893 67.381 17.0772 67.381 14.5502C67.3726 11.9362 65.7581 10.1196 63.5288 10.1055C61.2994 10.0915 59.6147 11.998 59.6147 14.5081C59.626 17.066 61.2713 18.9275 63.4923 18.9584Z" fill="#3D46C7"/>
</svg>
