<svg width="28" height="29" viewBox="0 0 28 29" fill="none" xmlns="http://www.w3.org/2000/svg">
<path d="M8.097 2.59521C8.58217 2.59521 8.97547 2.97346 8.97547 3.44004V5.14423C9.7547 5.1297 10.6281 5.1297 11.6109 5.1297H16.2961C17.2789 5.1297 18.1523 5.1297 18.9315 5.14423V3.44004C18.9315 2.97346 19.3248 2.59521 19.81 2.59521C20.2952 2.59521 20.6885 2.97346 20.6885 3.44004V5.21898C22.3744 5.3488 23.4811 5.66743 24.2942 6.4494C25.1073 7.23137 25.4387 8.29574 25.5737 9.91705L25.6667 10.7619H3.41198H2.33334V9.91705C2.46834 8.29574 2.79965 7.23137 3.61276 6.4494C4.42588 5.66743 5.53264 5.3488 7.21852 5.21898V3.44004C7.21852 2.97346 7.61183 2.59521 8.097 2.59521Z" fill="#3D46C7"/>
<path d="M25.5737 9.91705L24.8262 9.97929L24.8271 9.98922L24.8282 9.99914L25.5737 9.91705ZM3.61276 6.4494L3.09289 5.90882H3.09289L3.61276 6.4494ZM2.33334 9.91705L1.58592 9.85482L1.58334 9.88588V9.91705H2.33334ZM7.21852 5.21898L7.27611 5.96676L7.96852 5.91344V5.21898H7.21852ZM8.97547 5.14423H8.22547V5.90835L8.98946 5.8941L8.97547 5.14423ZM20.6885 5.21898H19.9385V5.91344L20.6309 5.96676L20.6885 5.21898ZM18.9315 5.14423L18.9175 5.8941L19.6815 5.90835V5.14423H18.9315ZM25.6667 10.7619V11.5119H26.5038L26.4122 10.6798L25.6667 10.7619ZM2.33334 10.7619H1.58334V11.5119H2.33334V10.7619ZM9.72547 3.44004C9.72547 2.53191 8.9685 1.84521 8.097 1.84521V3.34521C8.1421 3.34521 8.1764 3.36218 8.1983 3.38324C8.21968 3.4038 8.22547 3.42348 8.22547 3.44004H9.72547ZM8.097 1.84521C7.22549 1.84521 6.46852 2.53191 6.46852 3.44004H7.96852C7.96852 3.42348 7.97432 3.4038 7.9957 3.38324C8.0176 3.36218 8.05189 3.34521 8.097 3.34521V1.84521ZM21.4385 3.44004C21.4385 2.53191 20.6815 1.84521 19.81 1.84521V3.34521C19.8551 3.34521 19.8894 3.36218 19.9113 3.38324C19.9327 3.4038 19.9385 3.42348 19.9385 3.44004H21.4385ZM19.81 1.84521C18.9385 1.84521 18.1815 2.53191 18.1815 3.44004H19.6815C19.6815 3.42348 19.6873 3.4038 19.7087 3.38324C19.7306 3.36218 19.7649 3.34521 19.81 3.34521V1.84521ZM11.6109 5.8797H16.2961V4.3797H11.6109V5.8797ZM26.3211 9.85482C26.1812 8.1755 25.8268 6.88277 24.8141 5.90882L23.7743 6.98998C24.3878 7.57998 24.6961 8.41598 24.8262 9.97929L26.3211 9.85482ZM3.09289 5.90882C2.08015 6.88277 1.72575 8.1755 1.58592 9.85482L3.08075 9.97929C3.21092 8.41598 3.51915 7.57998 4.13264 6.98998L3.09289 5.90882ZM7.16094 4.47119C5.42721 4.6047 4.09925 4.941 3.09289 5.90882L4.13264 6.98998C4.75251 6.39386 5.63807 6.09291 7.27611 5.96676L7.16094 4.47119ZM6.46852 3.44004V5.21898H7.96852V3.44004H6.46852ZM11.6109 4.3797C10.6301 4.3797 9.74912 4.37967 8.96149 4.39436L8.98946 5.8941C9.76028 5.87972 10.6262 5.8797 11.6109 5.8797V4.3797ZM9.72547 5.14423V3.44004H8.22547V5.14423H9.72547ZM20.6309 5.96676C22.2689 6.09291 23.1545 6.39386 23.7743 6.98998L24.8141 5.90882C23.8077 4.941 22.4798 4.6047 20.7461 4.47119L20.6309 5.96676ZM21.4385 5.21898V3.44004H19.9385V5.21898H21.4385ZM16.2961 5.8797C17.2808 5.8797 18.1467 5.87972 18.9175 5.8941L18.9455 4.39436C18.1579 4.37967 17.2769 4.3797 16.2961 4.3797V5.8797ZM18.1815 3.44004V5.14423H19.6815V3.44004H18.1815ZM24.8282 9.99914L24.9212 10.844L26.4122 10.6798L26.3191 9.83497L24.8282 9.99914ZM3.08334 10.7619V9.91705H1.58334V10.7619H3.08334ZM25.6667 10.0119H3.41198V11.5119H25.6667V10.0119ZM3.41198 10.0119H2.33334V11.5119H3.41198V10.0119Z" fill="#3D46C7"/>
<g opacity="0.5">
<path d="M25.6667 16.5954V14.2621C25.6667 13.2832 25.6629 11.5381 25.6478 10.762H2.34458C2.32953 11.5381 2.33333 13.2832 2.33333 14.2621V16.5954C2.33333 20.9952 2.33333 23.1951 3.70017 24.5619C5.067 25.9287 7.26689 25.9287 11.6667 25.9287H16.3333C20.7331 25.9287 22.933 25.9287 24.2998 24.5619C25.6667 23.1951 25.6667 20.9952 25.6667 16.5954Z" fill="#3D46C7"/>
<path d="M3.70017 24.5619L4.2305 24.0316H4.2305L3.70017 24.5619ZM24.2998 24.5619L23.7695 24.0316L24.2998 24.5619ZM2.34458 10.762V10.012H1.60899L1.59472 10.7474L2.34458 10.762ZM25.6478 10.762L26.3977 10.7474L26.3834 10.012H25.6478V10.762ZM24.9167 14.2621V16.5954H26.4167V14.2621H24.9167ZM16.3333 25.1787H11.6667V26.6787H16.3333V25.1787ZM3.08333 16.5954V14.2621H1.58333V16.5954H3.08333ZM11.6667 25.1787C9.44558 25.1787 7.85521 25.1771 6.646 25.0146C5.45837 24.8549 4.75134 24.5524 4.2305 24.0316L3.16984 25.0922C4.01583 25.9382 5.09217 26.3191 6.44613 26.5012C7.77852 26.6803 9.48798 26.6787 11.6667 26.6787V25.1787ZM1.58333 16.5954C1.58333 18.7741 1.58174 20.4835 1.76088 21.8159C1.94291 23.1699 2.32385 24.2462 3.16984 25.0922L4.2305 24.0316C3.70966 23.5107 3.40717 22.8037 3.2475 21.6161C3.08493 20.4069 3.08333 18.8165 3.08333 16.5954H1.58333ZM24.9167 16.5954C24.9167 18.8165 24.9151 20.4069 24.7525 21.6161C24.5928 22.8037 24.2903 23.5107 23.7695 24.0316L24.8302 25.0922C25.6762 24.2462 26.0571 23.1699 26.2391 21.8159C26.4183 20.4835 26.4167 18.7741 26.4167 16.5954H24.9167ZM16.3333 26.6787C18.512 26.6787 20.2215 26.6803 21.5539 26.5012C22.9078 26.3191 23.9842 25.9382 24.8302 25.0922L23.7695 24.0316C23.2487 24.5524 22.5416 24.8549 21.354 25.0146C20.1448 25.1771 18.5544 25.1787 16.3333 25.1787V26.6787ZM1.59472 10.7474C1.57949 11.5332 1.58333 13.2901 1.58333 14.2621H3.08333C3.08333 13.2762 3.07958 11.5431 3.09444 10.7765L1.59472 10.7474ZM26.4167 14.2621C26.4167 13.2852 26.4129 11.5323 26.3977 10.7474L24.898 10.7765C24.9128 11.5439 24.9167 13.2812 24.9167 14.2621H26.4167ZM2.34458 11.512H25.6478V10.012H2.34458V11.512Z" fill="#3D46C7"/>
</g>
<path d="M20.5 20.0953C20.5 20.4635 20.2015 20.762 19.8333 20.762C19.4651 20.762 19.1667 20.4635 19.1667 20.0953C19.1667 19.7271 19.4651 19.4286 19.8333 19.4286C20.2015 19.4286 20.5 19.7271 20.5 20.0953ZM20.5 15.4286C20.5 15.7968 20.2015 16.0953 19.8333 16.0953C19.4651 16.0953 19.1667 15.7968 19.1667 15.4286C19.1667 15.0604 19.4651 14.762 19.8333 14.762C20.2015 14.762 20.5 15.0604 20.5 15.4286Z" fill="#3D46C7" stroke="#3D46C7"/>
<path d="M14.6667 20.0953C14.6667 20.4635 14.3682 20.762 14 20.762C13.6318 20.762 13.3333 20.4635 13.3333 20.0953C13.3333 19.7271 13.6318 19.4286 14 19.4286C14.3682 19.4286 14.6667 19.7271 14.6667 20.0953ZM14.6667 15.4286C14.6667 15.7968 14.3682 16.0953 14 16.0953C13.6318 16.0953 13.3333 15.7968 13.3333 15.4286C13.3333 15.0604 13.6318 14.762 14 14.762C14.3682 14.762 14.6667 15.0604 14.6667 15.4286Z" fill="#3D46C7" stroke="#3D46C7"/>
<path d="M8.83333 20.0953C8.83333 20.4635 8.53486 20.762 8.16667 20.762C7.79848 20.762 7.5 20.4635 7.5 20.0953C7.5 19.7271 7.79848 19.4286 8.16667 19.4286C8.53486 19.4286 8.83333 19.7271 8.83333 20.0953ZM8.83333 15.4286C8.83333 15.7968 8.53486 16.0953 8.16667 16.0953C7.79848 16.0953 7.5 15.7968 7.5 15.4286C7.5 15.0604 7.79848 14.762 8.16667 14.762C8.53486 14.762 8.83333 15.0604 8.83333 15.4286Z" fill="#3D46C7" stroke="#3D46C7"/>
</svg>
