<svg width="22" height="23" viewBox="0 0 22 23" fill="none" xmlns="http://www.w3.org/2000/svg">
<g clip-path="url(#clip0_1_310)">
<path d="M11.2445 2.68781C14.1182 2.68781 14.4586 2.70041 15.5887 2.75083C16.6391 2.79704 17.2063 2.9735 17.5844 3.12055C18.0843 3.31381 18.4457 3.54909 18.8196 3.92301C19.1977 4.30113 19.4288 4.65825 19.622 5.15821C19.7691 5.53633 19.9455 6.10772 19.9918 7.15386C20.0422 8.28823 20.0548 8.62854 20.0548 11.4981C20.0548 14.3718 20.0422 14.7121 19.9918 15.8423C19.9455 16.8926 19.7691 17.4598 19.622 17.8379C19.4288 18.3379 19.1935 18.6992 18.8196 19.0731C18.4415 19.4513 18.0843 19.6823 17.5844 19.8756C17.2063 20.0226 16.6349 20.1991 15.5887 20.2453C14.4544 20.2957 14.114 20.3083 11.2445 20.3083C8.37078 20.3083 8.03047 20.2957 6.9003 20.2453C5.84996 20.1991 5.28277 20.0226 4.90465 19.8756C4.40469 19.6823 4.04337 19.4471 3.66945 19.0731C3.29133 18.695 3.06025 18.3379 2.86699 17.8379C2.71994 17.4598 2.54348 16.8884 2.49727 15.8423C2.44685 14.7079 2.43425 14.3676 2.43425 11.4981C2.43425 8.62434 2.44685 8.28403 2.49727 7.15386C2.54348 6.10352 2.71994 5.53633 2.86699 5.15821C3.06025 4.65825 3.29553 4.29693 3.66945 3.92301C4.04757 3.54489 4.40469 3.31381 4.90465 3.12055C5.28277 2.9735 5.85416 2.79704 6.9003 2.75083C8.03047 2.70041 8.37078 2.68781 11.2445 2.68781ZM11.2445 0.750977C8.32456 0.750977 7.95904 0.763581 6.81207 0.813997C5.6693 0.864413 4.88364 1.04927 4.20302 1.31396C3.49299 1.59125 2.8922 1.95677 2.2956 2.55756C1.69481 3.15416 1.32929 3.75495 1.052 4.46078C0.787311 5.14561 0.602451 5.92706 0.552034 7.06983C0.501618 8.22101 0.489014 8.58653 0.489014 11.5065C0.489014 14.4264 0.501618 14.7919 0.552034 15.9389C0.602451 17.0817 0.787311 17.8673 1.052 18.548C1.32929 19.258 1.69481 19.8588 2.2956 20.4554C2.8922 21.052 3.49299 21.4217 4.19882 21.6948C4.88364 21.9595 5.6651 22.1443 6.80787 22.1948C7.95484 22.2452 8.32036 22.2578 11.2403 22.2578C14.1603 22.2578 14.5258 22.2452 15.6728 22.1948C16.8155 22.1443 17.6012 21.9595 18.2818 21.6948C18.9876 21.4217 19.5884 21.052 20.185 20.4554C20.7816 19.8588 21.1513 19.258 21.4244 18.5522C21.6891 17.8673 21.874 17.0859 21.9244 15.9431C21.9748 14.7961 21.9874 14.4306 21.9874 11.5107C21.9874 8.59073 21.9748 8.22521 21.9244 7.07824C21.874 5.93546 21.6891 5.14981 21.4244 4.46919C21.1597 3.75495 20.7942 3.15416 20.1934 2.55756C19.5968 1.96097 18.996 1.59125 18.2902 1.31816C17.6054 1.05347 16.8239 0.868615 15.6812 0.818198C14.53 0.763581 14.1645 0.750977 11.2445 0.750977Z" fill="#000100"/>
<path d="M11.2445 5.98169C8.19433 5.98169 5.71973 8.4563 5.71973 11.5065C5.71973 14.5567 8.19433 17.0313 11.2445 17.0313C14.2947 17.0313 16.7693 14.5567 16.7693 11.5065C16.7693 8.4563 14.2947 5.98169 11.2445 5.98169ZM11.2445 15.0903C9.26568 15.0903 7.66076 13.4853 7.66076 11.5065C7.66076 9.52764 9.26568 7.92272 11.2445 7.92272C13.2234 7.92272 14.8283 9.52764 14.8283 11.5065C14.8283 13.4853 13.2234 15.0903 11.2445 15.0903Z" fill="#000100"/>
<path d="M18.2776 5.76321C18.2776 6.47744 17.6978 7.05303 16.9878 7.05303C16.2735 7.05303 15.6979 6.47324 15.6979 5.76321C15.6979 5.04898 16.2777 4.47339 16.9878 4.47339C17.6978 4.47339 18.2776 5.05318 18.2776 5.76321Z" fill="#000100"/>
</g>
<defs>
<clipPath id="clip0_1_310">
<rect width="21.511" height="21.511" fill="white" transform="translate(0.489014 0.750977)"/>
</clipPath>
</defs>
</svg>
