<svg width="23" height="23" viewBox="0 0 23 23" fill="none" xmlns="http://www.w3.org/2000/svg">
<path d="M20.8303 0.750977H2.49516C2.07401 0.750977 1.67012 0.918276 1.37232 1.21607C1.07453 1.51387 0.907227 1.91776 0.907227 2.33891V20.674C0.907227 21.0952 1.07453 21.4991 1.37232 21.7969C1.67012 22.0947 2.07401 22.262 2.49516 22.262H20.8303C21.2514 22.262 21.6553 22.0947 21.9531 21.7969C22.2509 21.4991 22.4182 21.0952 22.4182 20.674V2.33891C22.4182 1.91776 22.2509 1.51387 21.9531 1.21607C21.6553 0.918276 21.2514 0.750977 20.8303 0.750977ZM7.3187 19.0757H4.08458V8.80266H7.3187V19.0757ZM5.6994 7.37905C5.33254 7.37699 4.97452 7.2663 4.67052 7.06095C4.36651 6.8556 4.13015 6.5648 3.99126 6.22525C3.85236 5.88569 3.81717 5.51261 3.89011 5.15307C3.96306 4.79354 4.14087 4.46366 4.40111 4.20509C4.66135 3.94651 4.99236 3.77082 5.35236 3.70019C5.71235 3.62956 6.0852 3.66715 6.42386 3.80821C6.76251 3.94928 7.05179 4.18751 7.25518 4.49283C7.45857 4.79814 7.56696 5.15687 7.56667 5.52373C7.57013 5.76934 7.52411 6.01314 7.43134 6.24059C7.33858 6.46804 7.20097 6.67448 7.02672 6.84761C6.85247 7.02075 6.64515 7.15703 6.41711 7.24833C6.18907 7.33963 5.94499 7.38409 5.6994 7.37905ZM19.2394 19.0846H16.0068V13.4723C16.0068 11.8172 15.3032 11.3063 14.3949 11.3063C13.4359 11.3063 12.4948 12.0293 12.4948 13.5142V19.0846H9.26066V8.81013H12.3708V10.2337H12.4126C12.7248 9.60186 13.8183 8.52183 15.4869 8.52183C17.2914 8.52183 19.2409 9.59289 19.2409 12.7299L19.2394 19.0846Z" fill="black"/>
</svg>
