<svg width="28" height="29" viewBox="0 0 28 29" fill="none" xmlns="http://www.w3.org/2000/svg">
<path fill-rule="evenodd" clip-rule="evenodd" d="M24.3008 12.7632L23.6969 15.017C22.9919 17.648 22.6394 18.9634 21.8404 19.8166C21.2094 20.4902 20.3929 20.9617 19.494 21.1713C19.3817 21.1974 19.2677 21.2176 19.1508 21.232C18.0833 21.3637 16.7806 21.0147 14.4092 20.3793C11.7783 19.6743 10.4628 19.3218 9.60967 18.5227C8.93603 17.8918 8.4646 17.0753 8.25501 16.1764C7.98958 15.038 8.34205 13.7225 9.04701 11.0916L9.65092 8.83778C9.75228 8.45951 9.84641 8.10818 9.93558 7.78176C10.4665 5.83805 10.8233 4.76869 11.5074 4.03823C12.1384 3.36458 12.9549 2.89315 13.8538 2.68356C14.9922 2.41813 16.3076 2.7706 18.9386 3.47556C21.5695 4.18051 22.885 4.53299 23.7381 5.33207C24.4118 5.96301 24.8832 6.77954 25.0928 7.67841C25.3582 8.81681 25.0057 10.1323 24.3008 12.7632ZM12.8945 11.7021C13.0196 11.2353 13.4993 10.9583 13.9661 11.0834L19.6007 12.5931C20.0675 12.7182 20.3445 13.198 20.2194 13.6648C20.0943 14.1316 19.6145 14.4086 19.1478 14.2835L13.5132 12.7737C13.0464 12.6487 12.7694 12.1689 12.8945 11.7021ZM11.9881 15.0825C12.1132 14.6157 12.593 14.3387 13.0598 14.4637L16.4405 15.3696C16.9073 15.4947 17.1843 15.9745 17.0593 16.4413C16.9342 16.908 16.4544 17.185 15.9876 17.06L12.6069 16.1541C12.1401 16.029 11.8631 15.5492 11.9881 15.0825Z" fill="#3D46C7"/>
<path opacity="0.5" d="M19.1507 21.2322C18.9074 21.9769 18.4798 22.6506 17.9048 23.1892C17.0516 23.9883 15.7362 24.3407 13.1052 25.0457C10.4743 25.7506 9.15885 26.1031 8.02044 25.8377C7.12158 25.6281 6.30504 25.1567 5.6741 24.483C4.87502 23.6299 4.52255 22.3144 3.81759 19.6835L3.21368 17.4296C2.50872 14.7987 2.15625 13.4832 2.42169 12.3448C2.63127 11.446 3.1027 10.6294 3.77635 9.9985C4.62951 9.19942 5.94498 8.84695 8.57591 8.14199C9.07363 8.00863 9.52431 7.88787 9.93558 7.78153C9.93555 7.78166 9.93562 7.78141 9.93558 7.78153C9.84642 8.10795 9.75228 8.45963 9.65092 8.8379L9.04701 11.0917C8.34206 13.7227 7.98958 15.0381 8.25502 16.1765C8.46461 17.0754 8.93603 17.8919 9.60968 18.5229C10.4628 19.3219 11.7783 19.6744 14.4092 20.3794C16.7805 21.0148 18.0832 21.3638 19.1507 21.2322Z" fill="#3D46C7"/>
</svg>
