<svg width="28" height="29" viewBox="0 0 28 29" fill="none" xmlns="http://www.w3.org/2000/svg">
<path d="M9.04167 22.4287C9.04167 22.912 8.64992 23.3037 8.16667 23.3037H5.83334C5.35009 23.3037 4.95834 22.912 4.95834 22.4287C4.95834 21.9455 5.35009 21.5537 5.83334 21.5537H8.16667C8.64992 21.5537 9.04167 21.9455 9.04167 22.4287Z" fill="#3D46C7"/>
<path opacity="0.4" d="M11.6667 21.2619V7.26188C11.6667 5.6284 11.6667 4.81165 11.3488 4.18774C11.0691 3.63894 10.6229 3.19274 10.0741 2.91311C9.45023 2.59521 8.63349 2.59521 7 2.59521C5.36652 2.59521 4.54977 2.59521 3.92586 2.91311C3.37706 3.19274 2.93086 3.63894 2.65123 4.18774C2.33334 4.81165 2.33334 5.6284 2.33334 7.26188V21.2619C2.33334 22.8954 2.33334 23.7121 2.65123 24.336C2.93086 24.8848 3.37706 25.331 3.92586 25.6107C4.54977 25.9286 5.36652 25.9286 7 25.9286C8.63349 25.9286 9.45023 25.9286 10.0741 25.6107C10.6229 25.331 11.0691 24.8848 11.3488 24.336C11.6667 23.7121 11.6667 22.8954 11.6667 21.2619Z" fill="#3D46C7"/>
<g opacity="0.7">
<path d="M11.6667 9.8786V21.262C11.6667 22.3338 11.6667 23.054 11.5769 23.5987L15.4255 19.7501L22.2366 12.6456C23.3721 11.475 23.9399 10.8897 24.1458 10.2187C24.3215 9.64642 24.3168 9.03398 24.1325 8.46447C23.9163 7.79669 23.3332 7.2136 22.1671 6.04745C21.1156 5.0134 20.5898 4.49637 19.9737 4.28073C19.4667 4.10323 18.9204 4.06923 18.3952 4.1825C17.7572 4.3201 17.1714 4.76796 15.9998 5.66366L15.1667 6.3786L11.6667 9.8786Z" fill="#3D46C7"/>
<path d="M9.3367 25.8389C9.33558 25.8391 9.33446 25.8393 9.33334 25.8395V25.8423L9.3367 25.8389Z" fill="#3D46C7"/>
</g>
<path d="M18.45 16.5952H20.8826C22.5161 16.5952 23.3329 16.5952 23.9568 16.9131C24.5056 17.1927 24.9518 17.6389 25.2314 18.1877C25.5493 18.8117 25.5493 19.6284 25.5493 21.2619C25.5493 22.8954 25.5493 23.7121 25.2314 24.336C24.9518 24.8848 24.5056 25.331 23.9568 25.6107C23.3329 25.9285 22.5161 25.9285 20.8826 25.9285H7C8.07008 25.9285 8.78966 25.9285 9.33414 25.8392L9.33333 25.8421L9.33669 25.8388C9.62223 25.7917 9.85959 25.72 10.0741 25.6107C10.6229 25.331 11.0691 24.8848 11.3488 24.336C11.4581 24.1215 11.5298 23.8841 11.5769 23.5986L15.4255 19.75L18.45 16.5952Z" fill="#3D46C7"/>
</svg>
