<svg width="271" height="141" viewBox="0 0 271 141" fill="none" xmlns="http://www.w3.org/2000/svg">
<g clip-path="url(#clip0_1_267)">
<rect y="0.297119" width="271" height="140" rx="8" fill="#4750D1"/>
<path d="M435.23 170.815C435.23 268.847 434.376 366.879 435.23 465.005C435.704 503.535 420.14 520.901 381.704 518.624C365.899 517.722 350.056 517.722 334.251 518.624C299.326 520.237 285.85 502.206 285.945 469.466C285.945 407.781 285.47 346.095 285.945 284.41C285.945 260.211 282.054 251.101 253.772 258.218C176.74 277.861 96.0101 277.861 18.9781 258.218C-13.5742 249.962 -14.9978 262.963 -14.6182 287.447C-13.9538 347.519 -14.6182 407.591 -14.6182 467.757C-14.6182 502.775 -28.759 521.471 -65.9616 518.339C-80.1745 517.2 -94.4557 517.2 -108.669 518.339C-150.427 521.945 -164.188 501.637 -163.998 461.399C-163.049 265.272 -163.049 69.1456 -163.998 -126.981C-162.669 -166.934 -146.441 -184.87 -105.727 -182.213C-93.0872 -181.355 -80.4042 -181.355 -67.7648 -182.213C-26.4812 -184.965 -10.822 -164.087 -11.4863 -125.273C-12.3405 -66.8146 -10.3475 -8.26125 -12.2455 50.1972C-13.1946 77.0539 -4.27354 89.4858 21.8252 96.6033C96.8054 117.496 176.049 117.66 251.115 97.0778C279.112 89.6756 289.077 75.5355 287.653 46.7808C285.66 -11.6777 287.653 -70.231 286.799 -128.689C286.04 -166.649 301.984 -184.87 340.515 -182.498C354.739 -181.691 368.998 -181.691 383.222 -182.498C421.469 -184.396 436.464 -165.89 435.989 -127.93C435.23 -28.475 435.23 71.3599 435.23 170.815Z" fill="#3D46C7"/>
<path d="M56.6126 54.875C56.6126 58.0837 56.5846 61.2924 56.6126 64.5042C56.6281 65.7653 56.1187 66.3337 54.8607 66.2592C54.3434 66.2297 53.8249 66.2297 53.3076 66.2592C52.1645 66.312 51.7234 65.7218 51.7265 64.6502C51.7265 62.6311 51.711 60.6121 51.7265 58.5931C51.7265 57.801 51.5992 57.5028 50.6735 57.7358C48.1523 58.3787 45.51 58.3787 42.9888 57.7358C41.9234 57.4655 41.8768 57.8911 41.8892 58.6925C41.911 60.6587 41.8892 62.6249 41.8892 64.5943C41.8892 65.7404 41.4264 66.3524 40.2088 66.2499C39.7436 66.2126 39.2762 66.2126 38.811 66.2499C37.4442 66.3679 36.9939 65.7032 37.0001 64.3861C37.0311 57.9667 37.0311 51.5472 37.0001 45.1277C37.0435 43.82 37.5747 43.233 38.9073 43.3199C39.3209 43.348 39.7361 43.348 40.1497 43.3199C41.5009 43.2299 42.0135 43.9132 41.9917 45.1837C41.9638 47.0971 42.029 49.0136 41.9669 50.927C41.9358 51.8061 42.2278 52.213 43.082 52.4459C45.5361 53.1298 48.1297 53.1351 50.5866 52.4615C51.5029 52.2192 51.829 51.7564 51.7824 50.8152C51.7172 48.9018 51.7824 46.9852 51.7545 45.0718C51.7296 43.8294 52.2515 43.233 53.5126 43.3106C53.9781 43.337 54.4448 43.337 54.9104 43.3106C56.1622 43.2485 56.653 43.8542 56.6374 45.0967C56.6126 48.352 56.6126 51.6197 56.6126 54.875Z" fill="#FEFEFE"/>
<path d="M165.298 55.7321C168.168 54.4896 170.082 52.6104 171.576 50.2434C172.309 49.0755 175.344 48.4108 176.508 49.1749C177.214 49.6377 177.13 50.2559 176.819 50.9423C175.816 53.1067 174.426 55.069 172.716 56.7323C172.095 57.3535 172.095 57.7294 172.592 58.391C174.232 60.5218 175.816 62.6962 177.419 64.855C177.729 65.2619 178.145 65.6471 177.822 66.231C177.534 66.7467 177.009 66.5416 176.58 66.6162C174.02 67.0169 172.048 66.2683 170.787 63.8672C170.361 63.0534 169.579 62.4321 169.131 61.6276C168.404 60.3168 167.56 60.1398 166.243 60.8107C165.584 61.1462 165.286 61.432 165.311 62.1526C165.36 63.1838 165.332 64.2213 165.311 65.2588C165.295 66.1223 164.87 66.5416 163.975 66.6224C160.661 66.933 160.446 66.7435 160.446 63.392C160.446 57.0802 160.446 50.7642 160.446 44.4442C160.446 42.391 160.567 42.3133 163.214 42.3289C165.14 42.3289 165.289 42.4904 165.289 44.5032C165.298 48.1809 165.298 51.8493 165.298 55.7321Z" fill="#FEFEFE"/>
<path d="M220.682 48.7899C221.997 48.7635 223.308 48.9534 224.561 49.3521C225.586 49.6907 225.863 51.1786 225.251 52.8435C224.832 53.9897 224.08 53.3249 223.465 53.1541C221.856 52.6664 220.253 52.3745 218.591 52.8808C217.889 53.092 217.349 53.502 217.311 54.2568C217.268 55.0955 217.933 55.4216 218.591 55.58C220.25 55.9745 221.933 56.2541 223.583 56.6672C225.897 57.2512 227.065 58.5309 227.348 60.6649C227.484 61.699 227.292 62.7499 226.798 63.6686C226.304 64.5873 225.533 65.3274 224.595 65.7839C221.179 67.4364 217.678 67.1506 214.184 65.9827C213.931 65.9162 213.715 65.7526 213.582 65.5274C213.449 65.3023 213.411 65.0339 213.475 64.7806C213.556 64.1594 213.68 63.5381 213.718 62.9355C213.789 61.7707 214.376 61.693 215.289 62.0813C217.128 62.8454 219.017 63.3238 221.03 62.9386C221.878 62.7771 222.735 62.5224 222.744 61.4756C222.753 60.4288 221.853 60.2952 221.11 60.1244C219.604 59.7765 218.057 59.5777 216.563 59.1926C213.997 58.5154 212.854 57.2108 212.708 54.9588C212.54 52.5236 213.64 50.635 215.898 49.6193C217.403 48.9625 219.044 48.678 220.682 48.7899Z" fill="#FEFEFE"/>
<path d="M150.55 48.7743C153.035 48.7743 155.24 49.4826 156.905 51.4301C157.965 52.6726 157.8 53.2752 156.464 54.1574C155.203 54.9898 154.212 55.2414 153.016 53.8934C152.038 52.7907 150.563 52.6819 149.121 53.1572C147.313 53.7567 146.257 55.2445 146.108 57.4251C145.956 59.6833 146.916 61.5097 148.671 62.3111C150.426 63.1125 152.004 62.7833 153.591 61.2737C154.451 60.4536 155.728 60.6773 157.089 61.9353C158.058 62.833 157.471 63.6499 156.806 64.3395C154.274 66.9642 151.143 67.3898 147.798 66.5138C144.403 65.641 142.207 63.389 141.461 59.9722C140.107 53.8809 144.31 48.7619 150.55 48.7743Z" fill="#FEFEFE"/>
<path d="M201.013 57.0772C201.013 56.0956 200.992 55.1109 201.013 54.1294C201.054 52.8869 201.249 51.8029 199.324 51.6879C197.966 51.6103 198.553 50.1348 198.482 49.2278C198.417 48.4388 198.867 47.8549 199.671 47.9419C201.001 48.0816 201.116 47.3672 201.013 46.367C200.998 46.0566 200.998 45.7456 201.013 45.4352C201.013 42.5899 202.023 41.8382 204.822 42.5464C205.573 42.739 205.806 43.2391 205.822 43.91C205.847 44.8947 205.871 45.8793 205.822 46.8609C205.788 47.6685 206.098 48.0009 206.906 47.9108C207.263 47.8704 207.633 47.9356 207.99 47.9108C209.45 47.7617 210.04 48.3798 210.04 49.8677C210.04 51.3556 209.419 51.9023 207.99 51.8929C205.816 51.8929 205.816 51.9302 205.816 54.03C205.816 55.9962 205.797 57.9655 205.816 59.9318C205.84 61.665 206.216 62.0253 207.912 62.0812C209.885 62.1465 209.959 62.3391 210.012 64.7681C210.049 66.3616 209.276 66.753 207.906 66.6318C207.493 66.5946 207.077 66.6318 206.663 66.6318C203.172 66.5293 201.125 64.5041 201.004 60.9848C200.957 59.6926 201.004 58.3973 201.004 57.102L201.013 57.0772Z" fill="#FEFEFE"/>
<path d="M120.268 57.0895C120.268 56.108 120.268 55.1233 120.268 54.1418C120.29 52.9304 120.541 51.7935 118.594 51.6941C117.274 51.6289 117.708 50.1752 117.684 49.2526C117.665 48.4171 118.081 47.8113 119.004 47.9263C120.246 48.0785 120.352 47.392 120.274 46.4477C120.231 45.9352 120.274 45.4134 120.274 44.8946C120.274 42.5588 120.343 42.4935 122.74 42.4998C124.915 42.4998 125.033 42.6209 125.039 44.7642C125.039 45.0748 125.039 45.3854 125.039 45.696C125.039 47.8704 125.039 47.9542 127.276 47.8704C128.788 47.8207 129.26 48.4388 129.279 49.8801C129.301 51.4021 128.633 51.8836 127.22 51.8711C125.045 51.8556 125.045 51.9022 125.045 54.1449C125.045 56.0583 125.045 57.9748 125.045 59.8882C125.045 61.3109 125.561 62.162 127.151 62.0626C127.912 62.016 128.878 61.9073 129.108 62.8733C129.366 63.9573 129.503 65.1222 128.922 66.1876C128.8 66.3512 128.627 66.4701 128.431 66.5262C127.538 66.8546 126.58 66.9681 125.635 66.8573C124.69 66.7465 123.784 66.4147 122.991 65.8886C122.199 65.3625 121.541 64.6571 121.071 63.8293C120.602 63.0016 120.334 62.075 120.29 61.1245C120.237 59.7826 120.29 58.4345 120.29 57.0864L120.268 57.0895Z" fill="#FEFEFE"/>
<path d="M85.5001 54.4493C85.5001 57.7046 85.5001 60.9599 85.5001 64.2152C85.5001 66.5697 85.4535 66.6132 83.0151 66.6132C80.7134 66.6132 80.6172 66.5138 80.6172 64.1282C80.6172 60.3573 80.6172 56.5853 80.6172 52.8123C80.6172 50.0168 80.6172 47.2212 80.6172 44.4411C80.6172 42.5992 80.8781 42.3569 82.6362 42.3414C85.5001 42.301 85.5001 42.301 85.5001 45.1462V54.4493Z" fill="#FEFEFE"/>
<path d="M94.8188 54.4742C94.8188 57.8911 94.7784 61.3079 94.8405 64.7247C94.8685 66.1163 94.3963 66.7748 92.9613 66.635C92.4972 66.5946 92.0306 66.5946 91.5666 66.635C90.4142 66.722 89.9576 66.1163 89.9576 65.0602C89.9576 58.0319 89.9576 51.0026 89.9576 43.9722C89.9576 42.8353 90.4949 42.2452 91.6939 42.3508C92.1581 42.3881 92.6245 42.3881 93.0886 42.3508C94.3653 42.2576 94.8436 42.8633 94.8312 44.1058C94.8001 47.5474 94.8188 50.9984 94.8188 54.4742Z" fill="#FEFEFE"/>
<path d="M133.118 58.506C133.118 56.5398 133.149 54.5767 133.118 52.6042C133.093 51.3059 133.603 50.6536 134.954 50.7623C135.466 50.8026 135.988 50.7778 136.507 50.7623C137.458 50.7436 137.986 51.2065 137.989 52.1507C138.003 56.5429 138.003 60.9351 137.989 65.3272C137.989 66.11 137.557 66.5697 136.731 66.5914H136.109C133.131 66.6349 133.131 66.6349 133.131 63.6002L133.118 58.506Z" fill="#FDFDFE"/>
<path d="M234.66 63.771C234.66 65.3863 233.56 66.5666 232.035 66.5977C231.673 66.5973 231.316 66.5249 230.982 66.3847C230.649 66.2445 230.347 66.0393 230.094 65.781C229.841 65.5228 229.642 65.2167 229.508 64.8806C229.375 64.5446 229.31 64.1853 229.317 63.8238C229.317 62.3049 230.559 60.9972 231.991 60.9755C233.513 60.9382 234.653 62.1558 234.66 63.771Z" fill="#FDFDFE"/>
<path d="M138.228 45.3451C138.274 46.864 137.044 48.2152 135.594 48.2369C134.889 48.2323 134.213 47.9535 133.71 47.4596C133.207 46.9657 132.915 46.2954 132.898 45.5905C132.814 43.9908 133.913 42.6955 135.414 42.6303C136.145 42.6251 136.848 42.9063 137.374 43.4138C137.9 43.9212 138.207 44.6145 138.228 45.3451Z" fill="#FDFDFE"/>
<path fill-rule="evenodd" clip-rule="evenodd" d="M69.1774 59.2611C69.7293 59.2563 70.281 59.2515 70.8328 59.2515C71.3422 59.2515 71.8516 59.2491 72.361 59.2467C73.5072 59.2415 74.6534 59.2362 75.7996 59.2577C77.0017 59.2825 77.4956 58.7141 77.4334 57.5524C77.244 54.061 75.9518 51.2126 72.6499 49.6347C69.4226 48.0909 65.2478 48.6904 62.7629 50.9579C59.4082 54.0299 58.8615 59.6149 61.5049 63.2647C64.1482 66.9144 70.1898 68.073 74.2713 65.7123C76.1288 64.6376 76.2065 63.9636 74.8056 62.3701C74.0446 61.4972 73.3954 61.4941 72.4014 62.0595C69.7177 63.5877 66.3971 62.7956 65.1547 60.5064C64.6887 59.6459 64.6887 59.2018 65.8629 59.2515C66.9688 59.2804 68.0733 59.2708 69.1774 59.2611ZM67.718 55.7841C68.0618 55.7861 68.405 55.7882 68.7483 55.7882C69.0929 55.7882 69.4375 55.7861 69.7812 55.784C70.4663 55.7799 71.1482 55.7758 71.8204 55.7882C72.5534 55.8068 72.7522 55.5708 72.4416 54.875C71.8701 53.558 70.3077 52.6013 68.6862 52.6013C67.1269 52.6199 65.5862 53.5859 65.0644 54.8284C64.8035 55.4434 64.8407 55.8068 65.6421 55.7882C66.3384 55.7758 67.0291 55.7799 67.718 55.7841Z" fill="#FEFEFE"/>
<path fill-rule="evenodd" clip-rule="evenodd" d="M188.576 59.2634C189.11 59.2575 189.645 59.2516 190.179 59.2516C190.625 59.2516 191.07 59.2494 191.517 59.2471C192.723 59.241 193.93 59.2348 195.136 59.2734C196.354 59.3013 196.805 58.7174 196.761 57.565C196.637 54.0425 195.304 51.1476 191.999 49.6628C188.536 48.1066 185.104 48.4172 182.153 50.9892C178.63 54.0581 178.17 59.7704 181.037 63.5164C183.743 67.0544 189.99 68.0825 193.869 65.5976C195.46 64.5725 195.491 64.0445 194.289 62.5504C193.552 61.6279 192.912 61.4166 191.804 62.0565C189.191 63.5599 185.905 62.8828 184.616 60.724C184.085 59.8356 183.936 59.1957 185.371 59.2516C186.437 59.2868 187.506 59.2751 188.576 59.2634ZM185.066 55.788H188.005C188.393 55.788 188.783 55.7864 189.174 55.7848C189.861 55.7819 190.552 55.779 191.247 55.7849C192.027 55.7849 192.114 55.4992 191.779 54.8531C191.459 54.1722 190.95 53.5983 190.312 53.2009C189.673 52.8035 188.933 52.5994 188.182 52.6135C186.545 52.5762 185.321 53.3248 184.498 54.735C184.116 55.3873 184.175 55.788 185.066 55.788Z" fill="#FEFEFE"/>
<path fill-rule="evenodd" clip-rule="evenodd" d="M116.407 57.7794C116.373 52.4802 112.593 48.7776 107.244 48.7994C101.87 48.8242 98.1021 52.5517 98.1083 57.8198C98.1052 63.1655 101.935 66.9147 107.365 66.893C112.679 66.8712 116.441 63.0786 116.407 57.7794ZM107.24 62.7368C109.697 62.771 111.543 60.6557 111.543 57.8601C111.533 54.9682 109.747 52.9585 107.281 52.943C104.815 52.9275 102.951 55.0366 102.951 57.8135C102.963 60.6432 104.783 62.7027 107.24 62.7368Z" fill="#FEFEFE"/>
<path d="M76.3098 93.964V83.884H80.2368C80.8388 83.884 81.3522 84.0077 81.7768 84.255C82.2062 84.5023 82.5328 84.829 82.7568 85.235C82.9855 85.6363 83.0998 86.0703 83.0998 86.537C83.0998 87.083 82.9598 87.5613 82.6798 87.972C82.3998 88.3827 82.0218 88.665 81.5458 88.819L81.5318 88.476C82.1805 88.6487 82.6845 88.966 83.0438 89.428C83.4032 89.89 83.5828 90.4407 83.5828 91.08C83.5828 91.668 83.4615 92.1767 83.2188 92.606C82.9808 93.0353 82.6355 93.369 82.1828 93.607C81.7348 93.845 81.2028 93.964 80.5868 93.964H76.3098ZM77.5698 92.774H80.3488C80.7222 92.774 81.0558 92.7063 81.3498 92.571C81.6438 92.431 81.8748 92.235 82.0428 91.983C82.2155 91.731 82.3018 91.4277 82.3018 91.073C82.3018 90.7323 82.2248 90.4267 82.0708 90.156C81.9215 89.8853 81.7092 89.6707 81.4338 89.512C81.1632 89.3487 80.8482 89.267 80.4888 89.267H77.5698V92.774ZM77.5698 88.091H80.2228C80.5215 88.091 80.7898 88.028 81.0278 87.902C81.2705 87.7713 81.4618 87.5893 81.6018 87.356C81.7465 87.1227 81.8188 86.8497 81.8188 86.537C81.8188 86.103 81.6718 85.7483 81.3778 85.473C81.0838 85.1977 80.6988 85.06 80.2228 85.06H77.5698V88.091ZM96.7938 94.174C96.0145 94.174 95.3261 94.013 94.7288 93.691C94.1315 93.369 93.6625 92.9187 93.3218 92.34C92.9858 91.7567 92.8178 91.073 92.8178 90.289V83.891L94.0778 83.884V90.184C94.0778 90.66 94.1571 91.0753 94.3158 91.43C94.4791 91.78 94.6938 92.0717 94.9598 92.305C95.2258 92.5383 95.5175 92.7133 95.8348 92.83C96.1568 92.942 96.4765 92.998 96.7938 92.998C97.1158 92.998 97.4378 92.9397 97.7598 92.823C98.0818 92.7063 98.3735 92.5337 98.6348 92.305C98.9008 92.0717 99.1131 91.7777 99.2718 91.423C99.4305 91.0683 99.5098 90.6553 99.5098 90.184V83.884H100.77V90.289C100.77 91.0683 100.599 91.7497 100.259 92.333C99.9228 92.9163 99.4561 93.369 98.8588 93.691C98.2615 94.013 97.5731 94.174 96.7938 94.174ZM113.723 94.174C113.009 94.174 112.365 94.0527 111.791 93.81C111.222 93.5673 110.75 93.222 110.377 92.774C110.008 92.3213 109.768 91.787 109.656 91.171L110.944 90.968C111.107 91.6027 111.446 92.0997 111.959 92.459C112.477 92.8137 113.086 92.991 113.786 92.991C114.239 92.991 114.647 92.921 115.011 92.781C115.38 92.6363 115.671 92.431 115.886 92.165C116.101 91.899 116.208 91.584 116.208 91.22C116.208 90.996 116.168 90.8047 116.089 90.646C116.014 90.4827 115.909 90.345 115.774 90.233C115.643 90.1163 115.494 90.0183 115.326 89.939C115.158 89.8597 114.983 89.7943 114.801 89.743L112.232 88.98C111.952 88.896 111.681 88.791 111.42 88.665C111.159 88.5343 110.925 88.3733 110.72 88.182C110.515 87.986 110.351 87.7527 110.23 87.482C110.109 87.2067 110.048 86.8823 110.048 86.509C110.048 85.9117 110.202 85.403 110.51 84.983C110.823 84.5583 111.245 84.234 111.777 84.01C112.309 83.786 112.909 83.6763 113.576 83.681C114.253 83.6857 114.857 83.807 115.389 84.045C115.926 84.2783 116.369 84.6143 116.719 85.053C117.074 85.4917 117.312 86.0167 117.433 86.628L116.11 86.859C116.04 86.4483 115.884 86.096 115.641 85.802C115.403 85.5033 115.104 85.2747 114.745 85.116C114.386 84.9527 113.991 84.8687 113.562 84.864C113.151 84.8593 112.78 84.9247 112.449 85.06C112.118 85.1953 111.854 85.3843 111.658 85.627C111.462 85.865 111.364 86.1403 111.364 86.453C111.364 86.761 111.453 87.0107 111.63 87.202C111.807 87.3887 112.024 87.538 112.281 87.65C112.542 87.7573 112.797 87.846 113.044 87.916L114.962 88.469C115.181 88.5297 115.433 88.6137 115.718 88.721C116.007 88.8283 116.287 88.98 116.558 89.176C116.829 89.3673 117.053 89.624 117.23 89.946C117.407 90.2633 117.496 90.6647 117.496 91.15C117.496 91.6353 117.398 92.067 117.202 92.445C117.011 92.823 116.742 93.1403 116.397 93.397C116.052 93.649 115.65 93.8403 115.193 93.971C114.736 94.1063 114.246 94.174 113.723 94.174ZM126.944 93.964V83.884H128.19V93.964H126.944ZM138.131 93.964V83.884H139.391L144.648 91.759V83.884H145.908V93.964H144.648L139.391 86.082V93.964H138.131ZM155.705 93.964V83.884H162.075V85.067H156.951V88.224H161.235V89.407H156.951V92.781H162.075V93.964H155.705ZM174.901 94.174C174.187 94.174 173.543 94.0527 172.969 93.81C172.4 93.5673 171.929 93.222 171.555 92.774C171.187 92.3213 170.946 91.787 170.834 91.171L172.122 90.968C172.286 91.6027 172.624 92.0997 173.137 92.459C173.655 92.8137 174.264 92.991 174.964 92.991C175.417 92.991 175.825 92.921 176.189 92.781C176.558 92.6363 176.85 92.431 177.064 92.165C177.279 91.899 177.386 91.584 177.386 91.22C177.386 90.996 177.347 90.8047 177.267 90.646C177.193 90.4827 177.088 90.345 176.952 90.233C176.822 90.1163 176.672 90.0183 176.504 89.939C176.336 89.8597 176.161 89.7943 175.979 89.743L173.41 88.98C173.13 88.896 172.86 88.791 172.598 88.665C172.337 88.5343 172.104 88.3733 171.898 88.182C171.693 87.986 171.53 87.7527 171.408 87.482C171.287 87.2067 171.226 86.8823 171.226 86.509C171.226 85.9117 171.38 85.403 171.688 84.983C172.001 84.5583 172.423 84.234 172.955 84.01C173.487 83.786 174.087 83.6763 174.754 83.681C175.431 83.6857 176.035 83.807 176.567 84.045C177.104 84.2783 177.547 84.6143 177.897 85.053C178.252 85.4917 178.49 86.0167 178.611 86.628L177.288 86.859C177.218 86.4483 177.062 86.096 176.819 85.802C176.581 85.5033 176.283 85.2747 175.923 85.116C175.564 84.9527 175.17 84.8687 174.74 84.864C174.33 84.8593 173.959 84.9247 173.627 85.06C173.296 85.1953 173.032 85.3843 172.836 85.627C172.64 85.865 172.542 86.1403 172.542 86.453C172.542 86.761 172.631 87.0107 172.808 87.202C172.986 87.3887 173.203 87.538 173.459 87.65C173.721 87.7573 173.975 87.846 174.222 87.916L176.14 88.469C176.36 88.5297 176.612 88.6137 176.896 88.721C177.186 88.8283 177.466 88.98 177.736 89.176C178.007 89.3673 178.231 89.624 178.408 89.946C178.586 90.2633 178.674 90.6647 178.674 91.15C178.674 91.6353 178.576 92.067 178.38 92.445C178.189 92.823 177.921 93.1403 177.575 93.397C177.23 93.649 176.829 93.8403 176.371 93.971C175.914 94.1063 175.424 94.174 174.901 94.174ZM191.765 94.174C191.051 94.174 190.407 94.0527 189.833 93.81C189.264 93.5673 188.792 93.222 188.419 92.774C188.05 92.3213 187.81 91.787 187.698 91.171L188.986 90.968C189.149 91.6027 189.488 92.0997 190.001 92.459C190.519 92.8137 191.128 92.991 191.828 92.991C192.281 92.991 192.689 92.921 193.053 92.781C193.422 92.6363 193.713 92.431 193.928 92.165C194.143 91.899 194.25 91.584 194.25 91.22C194.25 90.996 194.21 90.8047 194.131 90.646C194.056 90.4827 193.951 90.345 193.816 90.233C193.685 90.1163 193.536 90.0183 193.368 89.939C193.2 89.8597 193.025 89.7943 192.843 89.743L190.274 88.98C189.994 88.896 189.723 88.791 189.462 88.665C189.201 88.5343 188.967 88.3733 188.762 88.182C188.557 87.986 188.393 87.7527 188.272 87.482C188.151 87.2067 188.09 86.8823 188.09 86.509C188.09 85.9117 188.244 85.403 188.552 84.983C188.865 84.5583 189.287 84.234 189.819 84.01C190.351 83.786 190.951 83.6763 191.618 83.681C192.295 83.6857 192.899 83.807 193.431 84.045C193.968 84.2783 194.411 84.6143 194.761 85.053C195.116 85.4917 195.354 86.0167 195.475 86.628L194.152 86.859C194.082 86.4483 193.926 86.096 193.683 85.802C193.445 85.5033 193.146 85.2747 192.787 85.116C192.428 84.9527 192.033 84.8687 191.604 84.864C191.193 84.8593 190.822 84.9247 190.491 85.06C190.16 85.1953 189.896 85.3843 189.7 85.627C189.504 85.865 189.406 86.1403 189.406 86.453C189.406 86.761 189.495 87.0107 189.672 87.202C189.849 87.3887 190.066 87.538 190.323 87.65C190.584 87.7573 190.839 87.846 191.086 87.916L193.004 88.469C193.223 88.5297 193.475 88.6137 193.76 88.721C194.049 88.8283 194.329 88.98 194.6 89.176C194.871 89.3673 195.095 89.624 195.272 89.946C195.449 90.2633 195.538 90.6647 195.538 91.15C195.538 91.6353 195.44 92.067 195.244 92.445C195.053 92.823 194.784 93.1403 194.439 93.397C194.094 93.649 193.692 93.8403 193.235 93.971C192.778 94.1063 192.288 94.174 191.765 94.174Z" fill="white"/>
</g>
<defs>
<clipPath id="clip0_1_267">
<rect y="0.297119" width="271" height="140" rx="8" fill="white"/>
</clipPath>
</defs>
</svg>
