<svg width="520" height="141" viewBox="0 0 520 141" fill="none" xmlns="http://www.w3.org/2000/svg">
<g clip-path="url(#clip0_1_315)">
<rect y="0.261963" width="520" height="140" rx="8" fill="#4750D1"/>
<path d="M559.23 170.78C559.23 268.812 558.376 366.844 559.23 464.97C559.704 503.5 544.14 520.866 505.704 518.589C489.899 517.687 474.056 517.687 458.251 518.589C423.326 520.202 409.85 502.171 409.945 469.43C409.945 407.745 409.47 346.06 409.945 284.375C409.945 260.176 406.054 251.065 377.772 258.183C300.74 277.826 220.01 277.826 142.978 258.183C110.426 249.927 109.002 262.928 109.382 287.412C110.046 347.484 109.382 407.556 109.382 467.722C109.382 502.74 95.241 521.436 58.0384 518.304C43.8255 517.165 29.5443 517.165 15.3313 518.304C-26.4267 521.91 -40.1879 501.602 -39.9981 461.364C-39.049 265.237 -39.049 69.1104 -39.9981 -127.016C-38.6694 -166.969 -22.4407 -184.905 18.2734 -182.248C30.9128 -181.39 43.5958 -181.39 56.2352 -182.248C97.5188 -185 113.178 -164.122 112.514 -125.308C111.66 -66.8497 113.653 -8.2964 111.754 50.162C110.805 77.0187 119.726 89.4506 145.825 96.5681C220.805 117.461 300.049 117.625 375.115 97.0426C403.112 89.6404 413.077 75.5003 411.653 46.7456C409.66 -11.7128 411.653 -70.2661 410.799 -128.725C410.04 -166.685 425.984 -184.905 464.515 -182.533C478.739 -181.726 492.998 -181.726 507.222 -182.533C545.469 -184.431 560.464 -165.925 559.989 -127.965C559.23 -28.5101 559.23 71.3247 559.23 170.78Z" fill="#3D46C7"/>
<path d="M180.613 54.8398C180.613 58.0485 180.585 61.2572 180.613 64.469C180.628 65.7301 180.119 66.2986 178.861 66.224C178.343 66.1945 177.825 66.1945 177.308 66.224C176.165 66.2768 175.723 65.6866 175.727 64.615C175.727 62.596 175.711 60.577 175.727 58.5579C175.727 57.7659 175.599 57.4677 174.674 57.7006C172.152 58.3436 169.51 58.3436 166.989 57.7006C165.923 57.4304 165.877 57.8559 165.889 58.6573C165.911 60.6236 165.889 62.5898 165.889 64.5591C165.889 65.7053 165.426 66.3172 164.209 66.2147C163.744 66.1774 163.276 66.1774 162.811 66.2147C161.444 66.3327 160.994 65.668 161 64.351C161.031 57.9315 161.031 51.5121 161 45.0926C161.044 43.7849 161.575 43.1978 162.907 43.2848C163.321 43.3129 163.736 43.3129 164.15 43.2848C165.501 43.1947 166.013 43.8781 165.992 45.1485C165.964 47.0619 166.029 48.9784 165.967 50.8918C165.936 51.7709 166.228 52.1778 167.082 52.4108C169.536 53.0946 172.13 53.1 174.587 52.4263C175.503 52.184 175.829 51.7212 175.782 50.78C175.717 48.8666 175.782 46.9501 175.754 45.0367C175.73 43.7942 176.251 43.1978 177.513 43.2755C177.978 43.3019 178.445 43.3019 178.91 43.2755C180.162 43.2133 180.653 43.819 180.637 45.0615C180.613 48.3168 180.613 51.5845 180.613 54.8398Z" fill="#FEFEFE"/>
<path d="M289.298 55.6969C292.168 54.4545 294.082 52.5752 295.576 50.2083C296.309 49.0404 299.344 48.3756 300.508 49.1398C301.214 49.6026 301.13 50.2207 300.819 50.9072C299.816 53.0715 298.426 55.0338 296.716 56.6971C296.095 57.3184 296.095 57.6942 296.592 58.3558C298.232 60.4867 299.816 62.661 301.419 64.8198C301.729 65.2267 302.145 65.6119 301.822 66.1959C301.534 66.7115 301.009 66.5065 300.58 66.581C298.02 66.9817 296.048 66.2331 294.787 63.8321C294.361 63.0182 293.579 62.397 293.131 61.5925C292.404 60.2817 291.56 60.1046 290.243 60.7756C289.584 61.111 289.286 61.3968 289.311 62.1174C289.36 63.1487 289.332 64.1862 289.311 65.2236C289.295 66.0871 288.87 66.5065 287.975 66.5872C284.661 66.8979 284.446 66.7084 284.446 63.3568C284.446 57.045 284.446 50.7291 284.446 44.409C284.446 42.3558 284.567 42.2782 287.214 42.2937C289.14 42.2937 289.289 42.4552 289.289 44.468C289.298 48.1458 289.298 51.8142 289.298 55.6969Z" fill="#FEFEFE"/>
<path d="M344.682 48.7547C345.997 48.7283 347.308 48.9183 348.561 49.317C349.586 49.6555 349.863 51.1434 349.251 52.8083C348.832 53.9545 348.08 53.2898 347.465 53.119C345.856 52.6313 344.253 52.3393 342.591 52.8456C341.889 53.0568 341.349 53.4668 341.311 54.2217C341.268 55.0603 341.933 55.3865 342.591 55.5449C344.25 55.9394 345.933 56.2189 347.583 56.6321C349.897 57.216 351.065 58.4958 351.348 60.6297C351.484 61.6639 351.292 62.7147 350.798 63.6334C350.304 64.5522 349.533 65.2922 348.595 65.7487C345.179 67.4012 341.678 67.1155 338.184 65.9475C337.931 65.881 337.715 65.7174 337.582 65.4923C337.449 65.2671 337.411 64.9987 337.475 64.7454C337.556 64.1242 337.68 63.503 337.718 62.9004C337.789 61.7355 338.376 61.6579 339.289 62.0462C341.128 62.8103 343.017 63.2886 345.03 62.9035C345.878 62.7419 346.735 62.4872 346.744 61.4404C346.753 60.3937 345.853 60.2601 345.11 60.0893C343.604 59.7414 342.057 59.5426 340.563 59.1574C337.997 58.4802 336.854 57.1756 336.708 54.9237C336.54 52.4884 337.64 50.5998 339.898 49.5841C341.403 48.9273 343.044 48.6428 344.682 48.7547Z" fill="#FEFEFE"/>
<path d="M274.55 48.7392C277.035 48.7392 279.24 49.4474 280.905 51.395C281.965 52.6375 281.8 53.2401 280.464 54.1222C279.203 54.9547 278.212 55.2063 277.016 53.8582C276.038 52.7555 274.563 52.6468 273.121 53.122C271.313 53.7215 270.257 55.2094 270.108 57.3899C269.956 59.6481 270.916 61.4746 272.671 62.276C274.426 63.0774 276.004 62.7481 277.591 61.2385C278.451 60.4185 279.728 60.6421 281.089 61.9001C282.058 62.7978 281.471 63.6147 280.806 64.3043C278.274 66.9291 275.143 67.3546 271.798 66.4787C268.403 65.6058 266.207 63.3538 265.461 59.937C264.107 53.8458 268.31 48.7268 274.55 48.7392Z" fill="#FEFEFE"/>
<path d="M325.013 57.042C325.013 56.0605 324.992 55.0758 325.013 54.0942C325.054 52.8518 325.249 51.7677 323.324 51.6528C321.966 51.5751 322.553 50.0997 322.482 49.1927C322.417 48.4037 322.867 47.8197 323.671 47.9067C325.001 48.0465 325.116 47.332 325.013 46.3319C324.998 46.0214 324.998 45.7104 325.013 45.4C325.013 42.5547 326.023 41.803 328.822 42.5112C329.573 42.7038 329.806 43.2039 329.822 43.8749C329.847 44.8595 329.871 45.8442 329.822 46.8257C329.788 47.6333 330.098 47.9657 330.906 47.8756C331.263 47.8353 331.633 47.9005 331.99 47.8756C333.45 47.7265 334.04 48.3447 334.04 49.8325C334.04 51.3204 333.419 51.8671 331.99 51.8578C329.816 51.8578 329.816 51.895 329.816 53.9948C329.816 55.9611 329.797 57.9304 329.816 59.8966C329.84 61.6299 330.216 61.9902 331.912 62.0461C333.885 62.1113 333.959 62.3039 334.012 64.7329C334.049 66.3264 333.276 66.7178 331.906 66.5967C331.493 66.5594 331.077 66.5967 330.663 66.5967C327.172 66.4942 325.125 64.4689 325.004 60.9496C324.957 59.6574 325.004 58.3621 325.004 57.0669L325.013 57.042Z" fill="#FEFEFE"/>
<path d="M244.268 57.0544C244.268 56.0728 244.268 55.0882 244.268 54.1066C244.29 52.8952 244.541 51.7583 242.594 51.6589C241.274 51.5937 241.708 50.14 241.684 49.2175C241.665 48.3819 242.081 47.7762 243.004 47.8911C244.246 48.0433 244.352 47.3569 244.274 46.4126C244.231 45.9 244.274 45.3782 244.274 44.8595C244.274 42.5236 244.343 42.4584 246.74 42.4646C248.915 42.4646 249.033 42.5857 249.039 44.729C249.039 45.0396 249.039 45.3503 249.039 45.6609C249.039 47.8352 249.039 47.9191 251.276 47.8352C252.788 47.7855 253.26 48.4036 253.279 49.8449C253.301 51.3669 252.633 51.8484 251.22 51.836C249.045 51.8205 249.045 51.867 249.045 54.1097C249.045 56.0231 249.045 57.9397 249.045 59.8531C249.045 61.2757 249.561 62.1268 251.151 62.0274C251.912 61.9808 252.878 61.8721 253.108 62.8381C253.366 63.9222 253.503 65.087 252.922 66.1524C252.8 66.316 252.627 66.4349 252.431 66.491C251.538 66.8195 250.58 66.9329 249.635 66.8221C248.69 66.7114 247.784 66.3795 246.991 65.8534C246.199 65.3274 245.541 64.6219 245.071 63.7942C244.602 62.9665 244.334 62.0398 244.29 61.0893C244.237 59.7475 244.29 58.3994 244.29 57.0513L244.268 57.0544Z" fill="#FEFEFE"/>
<path d="M209.5 54.4141C209.5 57.6694 209.5 60.9247 209.5 64.18C209.5 66.5345 209.453 66.578 207.015 66.578C204.713 66.578 204.617 66.4786 204.617 64.093C204.617 60.3221 204.617 56.5502 204.617 52.7772C204.617 49.9816 204.617 47.186 204.617 44.406C204.617 42.564 204.878 42.3217 206.636 42.3062C209.5 42.2658 209.5 42.2658 209.5 45.1111V54.4141Z" fill="#FEFEFE"/>
<path d="M218.819 54.4391C218.819 57.8559 218.778 61.2727 218.841 64.6895C218.868 66.0811 218.396 66.7396 216.961 66.5998C216.497 66.5595 216.031 66.5595 215.567 66.5998C214.414 66.6868 213.958 66.0811 213.958 65.025C213.958 57.9967 213.958 50.9674 213.958 43.937C213.958 42.8002 214.495 42.21 215.694 42.3156C216.158 42.3529 216.624 42.3529 217.089 42.3156C218.365 42.2224 218.844 42.8281 218.831 44.0706C218.8 47.5123 218.819 50.9633 218.819 54.4391Z" fill="#FEFEFE"/>
<path d="M257.118 58.4709C257.118 56.5046 257.149 54.5415 257.118 52.5691C257.093 51.2707 257.603 50.6184 258.954 50.7271C259.466 50.7675 259.988 50.7426 260.507 50.7271C261.458 50.7085 261.986 51.1713 261.989 52.1156C262.003 56.5077 262.003 60.8999 261.989 65.2921C261.989 66.0748 261.557 66.5345 260.731 66.5563H260.109C257.131 66.5998 257.131 66.5998 257.131 63.565L257.118 58.4709Z" fill="#FDFDFE"/>
<path d="M358.66 63.7359C358.66 65.3511 357.56 66.5315 356.035 66.5625C355.673 66.5622 355.315 66.4898 354.982 66.3496C354.649 66.2093 354.347 66.0041 354.094 65.7459C353.841 65.4876 353.642 65.1815 353.508 64.8455C353.375 64.5094 353.31 64.1502 353.317 63.7887C353.317 62.2698 354.559 60.962 355.991 60.9403C357.513 60.903 358.653 62.1207 358.66 63.7359Z" fill="#FDFDFE"/>
<path d="M262.228 45.3099C262.274 46.8288 261.044 48.18 259.594 48.2018C258.889 48.1972 258.213 47.9184 257.71 47.4245C257.207 46.9305 256.915 46.2602 256.898 45.5553C256.814 43.9556 257.913 42.6603 259.414 42.5951C260.145 42.5899 260.848 42.8712 261.374 43.3786C261.9 43.8861 262.207 44.5793 262.228 45.3099Z" fill="#FDFDFE"/>
<path fill-rule="evenodd" clip-rule="evenodd" d="M193.177 59.226C193.729 59.2211 194.281 59.2163 194.833 59.2163C195.342 59.2163 195.852 59.2139 196.361 59.2116C197.507 59.2063 198.653 59.201 199.8 59.2225C201.002 59.2474 201.496 58.6789 201.433 57.5172C201.244 54.0258 199.952 51.1775 196.65 49.5995C193.423 48.0557 189.248 48.6552 186.763 50.9228C183.408 53.9948 182.862 59.5797 185.505 63.2295C188.148 66.8793 194.19 68.0379 198.271 65.6772C200.129 64.6024 200.206 63.9284 198.806 62.3349C198.045 61.4621 197.395 61.459 196.401 62.0243C193.718 63.5525 190.397 62.7605 189.155 60.4712C188.689 59.6108 188.689 59.1666 189.863 59.2163C190.969 59.2453 192.073 59.2356 193.177 59.226ZM191.718 55.7489C192.062 55.751 192.405 55.753 192.748 55.753C193.093 55.753 193.437 55.751 193.781 55.7489C194.466 55.7448 195.148 55.7406 195.82 55.753C196.553 55.7717 196.752 55.5356 196.442 54.8398C195.87 53.5228 194.308 52.5661 192.686 52.5661C191.127 52.5847 189.586 53.5508 189.064 54.7932C188.803 55.4083 188.841 55.7717 189.642 55.753C190.338 55.7406 191.029 55.7448 191.718 55.7489Z" fill="#FEFEFE"/>
<path fill-rule="evenodd" clip-rule="evenodd" d="M312.576 59.2282C313.11 59.2223 313.645 59.2165 314.179 59.2165C314.625 59.2165 315.07 59.2142 315.517 59.2119C316.723 59.2058 317.93 59.1997 319.136 59.2382C320.354 59.2662 320.805 58.6822 320.761 57.5298C320.637 54.0074 319.304 51.1124 315.999 49.6277C312.536 48.0715 309.103 48.3821 306.153 50.954C302.63 54.0229 302.17 59.7352 305.037 63.4813C307.743 67.0192 313.99 68.0474 317.869 65.5624C319.46 64.5374 319.491 64.0093 318.289 62.5153C317.552 61.5927 316.912 61.3815 315.804 62.0214C313.191 63.5248 309.905 62.8476 308.616 60.6888C308.085 59.8004 307.936 59.1606 309.371 59.2165C310.437 59.2517 311.506 59.2399 312.576 59.2282ZM309.066 55.7529H312.005C312.393 55.7529 312.783 55.7512 313.174 55.7496C313.861 55.7467 314.552 55.7438 315.247 55.7498C316.027 55.7498 316.114 55.464 315.779 54.8179C315.459 54.137 314.95 53.5632 314.312 53.1657C313.673 52.7683 312.933 52.5643 312.182 52.5783C310.545 52.5411 309.321 53.2897 308.498 54.6999C308.116 55.3522 308.175 55.7529 309.066 55.7529Z" fill="#FEFEFE"/>
<path fill-rule="evenodd" clip-rule="evenodd" d="M240.407 57.7442C240.373 52.4451 236.593 48.7425 231.244 48.7642C225.87 48.7891 222.102 52.5165 222.108 57.7846C222.105 63.1304 225.935 66.8796 231.365 66.8578C236.679 66.8361 240.441 63.0434 240.407 57.7442ZM231.24 62.7017C233.697 62.7358 235.543 60.6205 235.543 57.8249C235.533 54.9331 233.747 52.9234 231.281 52.9078C228.815 52.8923 226.951 55.0014 226.951 57.7783C226.963 60.6081 228.783 62.6675 231.24 62.7017Z" fill="#FEFEFE"/>
<path d="M200.31 93.9288V83.8488H204.237C204.839 83.8488 205.352 83.9725 205.777 84.2198C206.206 84.4672 206.533 84.7938 206.757 85.1998C206.986 85.6012 207.1 86.0352 207.1 86.5018C207.1 87.0478 206.96 87.5262 206.68 87.9368C206.4 88.3475 206.022 88.6298 205.546 88.7838L205.532 88.4408C206.181 88.6135 206.685 88.9308 207.044 89.3928C207.403 89.8548 207.583 90.4055 207.583 91.0448C207.583 91.6328 207.462 92.1415 207.219 92.5708C206.981 93.0002 206.636 93.3338 206.183 93.5718C205.735 93.8098 205.203 93.9288 204.587 93.9288H200.31ZM201.57 92.7388H204.349C204.722 92.7388 205.056 92.6712 205.35 92.5358C205.644 92.3958 205.875 92.1998 206.043 91.9478C206.216 91.6958 206.302 91.3925 206.302 91.0378C206.302 90.6972 206.225 90.3915 206.071 90.1208C205.922 89.8502 205.709 89.6355 205.434 89.4768C205.163 89.3135 204.848 89.2318 204.489 89.2318H201.57V92.7388ZM201.57 88.0558H204.223C204.522 88.0558 204.79 87.9928 205.028 87.8668C205.271 87.7362 205.462 87.5542 205.602 87.3208C205.747 87.0875 205.819 86.8145 205.819 86.5018C205.819 86.0678 205.672 85.7132 205.378 85.4378C205.084 85.1625 204.699 85.0248 204.223 85.0248H201.57V88.0558ZM220.794 94.1388C220.014 94.1388 219.326 93.9778 218.729 93.6558C218.131 93.3338 217.662 92.8835 217.322 92.3048C216.986 91.7215 216.818 91.0378 216.818 90.2538V83.8558L218.078 83.8488V90.1488C218.078 90.6248 218.157 91.0402 218.316 91.3948C218.479 91.7448 218.694 92.0365 218.96 92.2698C219.226 92.5032 219.517 92.6782 219.835 92.7948C220.157 92.9068 220.476 92.9628 220.794 92.9628C221.116 92.9628 221.438 92.9045 221.76 92.7878C222.082 92.6712 222.373 92.4985 222.635 92.2698C222.901 92.0365 223.113 91.7425 223.272 91.3878C223.43 91.0332 223.51 90.6202 223.51 90.1488V83.8488H224.77V90.2538C224.77 91.0332 224.599 91.7145 224.259 92.2978C223.923 92.8812 223.456 93.3338 222.859 93.6558C222.261 93.9778 221.573 94.1388 220.794 94.1388ZM237.723 94.1388C237.009 94.1388 236.365 94.0175 235.791 93.7748C235.222 93.5322 234.75 93.1868 234.377 92.7388C234.008 92.2862 233.768 91.7518 233.656 91.1358L234.944 90.9328C235.107 91.5675 235.446 92.0645 235.959 92.4238C236.477 92.7785 237.086 92.9558 237.786 92.9558C238.239 92.9558 238.647 92.8858 239.011 92.7458C239.38 92.6012 239.671 92.3958 239.886 92.1298C240.101 91.8638 240.208 91.5488 240.208 91.1848C240.208 90.9608 240.168 90.7695 240.089 90.6108C240.014 90.4475 239.909 90.3098 239.774 90.1978C239.643 90.0812 239.494 89.9832 239.326 89.9038C239.158 89.8245 238.983 89.7592 238.801 89.7078L236.232 88.9448C235.952 88.8608 235.681 88.7558 235.42 88.6298C235.159 88.4992 234.925 88.3382 234.72 88.1468C234.515 87.9508 234.351 87.7175 234.23 87.4468C234.109 87.1715 234.048 86.8472 234.048 86.4738C234.048 85.8765 234.202 85.3678 234.51 84.9478C234.823 84.5232 235.245 84.1988 235.777 83.9748C236.309 83.7508 236.909 83.6412 237.576 83.6458C238.253 83.6505 238.857 83.7718 239.389 84.0098C239.926 84.2432 240.369 84.5792 240.719 85.0178C241.074 85.4565 241.312 85.9815 241.433 86.5928L240.11 86.8238C240.04 86.4132 239.884 86.0608 239.641 85.7668C239.403 85.4682 239.104 85.2395 238.745 85.0808C238.386 84.9175 237.991 84.8335 237.562 84.8288C237.151 84.8242 236.78 84.8895 236.449 85.0248C236.118 85.1602 235.854 85.3492 235.658 85.5918C235.462 85.8298 235.364 86.1052 235.364 86.4178C235.364 86.7258 235.453 86.9755 235.63 87.1668C235.807 87.3535 236.024 87.5028 236.281 87.6148C236.542 87.7222 236.797 87.8108 237.044 87.8808L238.962 88.4338C239.181 88.4945 239.433 88.5785 239.718 88.6858C240.007 88.7932 240.287 88.9448 240.558 89.1408C240.829 89.3322 241.053 89.5888 241.23 89.9108C241.407 90.2282 241.496 90.6295 241.496 91.1148C241.496 91.6002 241.398 92.0318 241.202 92.4098C241.011 92.7878 240.742 93.1052 240.397 93.3618C240.052 93.6138 239.65 93.8052 239.193 93.9358C238.736 94.0712 238.246 94.1388 237.723 94.1388ZM250.944 93.9288V83.8488H252.19V93.9288H250.944ZM262.131 93.9288V83.8488H263.391L268.648 91.7238V83.8488H269.908V93.9288H268.648L263.391 86.0468V93.9288H262.131ZM279.705 93.9288V83.8488H286.075V85.0318H280.951V88.1888H285.235V89.3718H280.951V92.7458H286.075V93.9288H279.705ZM298.901 94.1388C298.187 94.1388 297.543 94.0175 296.969 93.7748C296.4 93.5322 295.929 93.1868 295.555 92.7388C295.187 92.2862 294.946 91.7518 294.834 91.1358L296.122 90.9328C296.286 91.5675 296.624 92.0645 297.137 92.4238C297.655 92.7785 298.264 92.9558 298.964 92.9558C299.417 92.9558 299.825 92.8858 300.189 92.7458C300.558 92.6012 300.85 92.3958 301.064 92.1298C301.279 91.8638 301.386 91.5488 301.386 91.1848C301.386 90.9608 301.347 90.7695 301.267 90.6108C301.193 90.4475 301.088 90.3098 300.952 90.1978C300.822 90.0812 300.672 89.9832 300.504 89.9038C300.336 89.8245 300.161 89.7592 299.979 89.7078L297.41 88.9448C297.13 88.8608 296.86 88.7558 296.598 88.6298C296.337 88.4992 296.104 88.3382 295.898 88.1468C295.693 87.9508 295.53 87.7175 295.408 87.4468C295.287 87.1715 295.226 86.8472 295.226 86.4738C295.226 85.8765 295.38 85.3678 295.688 84.9478C296.001 84.5232 296.423 84.1988 296.955 83.9748C297.487 83.7508 298.087 83.6412 298.754 83.6458C299.431 83.6505 300.035 83.7718 300.567 84.0098C301.104 84.2432 301.547 84.5792 301.897 85.0178C302.252 85.4565 302.49 85.9815 302.611 86.5928L301.288 86.8238C301.218 86.4132 301.062 86.0608 300.819 85.7668C300.581 85.4682 300.283 85.2395 299.923 85.0808C299.564 84.9175 299.17 84.8335 298.74 84.8288C298.33 84.8242 297.959 84.8895 297.627 85.0248C297.296 85.1602 297.032 85.3492 296.836 85.5918C296.64 85.8298 296.542 86.1052 296.542 86.4178C296.542 86.7258 296.631 86.9755 296.808 87.1668C296.986 87.3535 297.203 87.5028 297.459 87.6148C297.721 87.7222 297.975 87.8108 298.222 87.8808L300.14 88.4338C300.36 88.4945 300.612 88.5785 300.896 88.6858C301.186 88.7932 301.466 88.9448 301.736 89.1408C302.007 89.3322 302.231 89.5888 302.408 89.9108C302.586 90.2282 302.674 90.6295 302.674 91.1148C302.674 91.6002 302.576 92.0318 302.38 92.4098C302.189 92.7878 301.921 93.1052 301.575 93.3618C301.23 93.6138 300.829 93.8052 300.371 93.9358C299.914 94.0712 299.424 94.1388 298.901 94.1388ZM315.765 94.1388C315.051 94.1388 314.407 94.0175 313.833 93.7748C313.264 93.5322 312.792 93.1868 312.419 92.7388C312.05 92.2862 311.81 91.7518 311.698 91.1358L312.986 90.9328C313.149 91.5675 313.488 92.0645 314.001 92.4238C314.519 92.7785 315.128 92.9558 315.828 92.9558C316.281 92.9558 316.689 92.8858 317.053 92.7458C317.422 92.6012 317.713 92.3958 317.928 92.1298C318.143 91.8638 318.25 91.5488 318.25 91.1848C318.25 90.9608 318.21 90.7695 318.131 90.6108C318.056 90.4475 317.951 90.3098 317.816 90.1978C317.685 90.0812 317.536 89.9832 317.368 89.9038C317.2 89.8245 317.025 89.7592 316.843 89.7078L314.274 88.9448C313.994 88.8608 313.723 88.7558 313.462 88.6298C313.201 88.4992 312.967 88.3382 312.762 88.1468C312.557 87.9508 312.393 87.7175 312.272 87.4468C312.151 87.1715 312.09 86.8472 312.09 86.4738C312.09 85.8765 312.244 85.3678 312.552 84.9478C312.865 84.5232 313.287 84.1988 313.819 83.9748C314.351 83.7508 314.951 83.6412 315.618 83.6458C316.295 83.6505 316.899 83.7718 317.431 84.0098C317.968 84.2432 318.411 84.5792 318.761 85.0178C319.116 85.4565 319.354 85.9815 319.475 86.5928L318.152 86.8238C318.082 86.4132 317.926 86.0608 317.683 85.7668C317.445 85.4682 317.146 85.2395 316.787 85.0808C316.428 84.9175 316.033 84.8335 315.604 84.8288C315.193 84.8242 314.822 84.8895 314.491 85.0248C314.16 85.1602 313.896 85.3492 313.7 85.5918C313.504 85.8298 313.406 86.1052 313.406 86.4178C313.406 86.7258 313.495 86.9755 313.672 87.1668C313.849 87.3535 314.066 87.5028 314.323 87.6148C314.584 87.7222 314.839 87.8108 315.086 87.8808L317.004 88.4338C317.223 88.4945 317.475 88.5785 317.76 88.6858C318.049 88.7932 318.329 88.9448 318.6 89.1408C318.871 89.3322 319.095 89.5888 319.272 89.9108C319.449 90.2282 319.538 90.6295 319.538 91.1148C319.538 91.6002 319.44 92.0318 319.244 92.4098C319.053 92.7878 318.784 93.1052 318.439 93.3618C318.094 93.6138 317.692 93.8052 317.235 93.9358C316.778 94.0712 316.288 94.1388 315.765 94.1388Z" fill="white"/>
</g>
<defs>
<clipPath id="clip0_1_315">
<rect y="0.261963" width="520" height="140" rx="8" fill="white"/>
</clipPath>
</defs>
</svg>
